<?xml version="1.0" standalone="no"?><!DOCTYPE svg PUBLIC "-//W3C//DTD SVG 1.1//EN" "http://www.w3.org/Graphics/SVG/1.1/DTD/svg11.dtd"><svg t="1490942154573" class="icon" style="" viewBox="0 0 1024 1024" version="1.1" xmlns="http://www.w3.org/2000/svg" p-id="4961" xmlns:xlink="http://www.w3.org/1999/xlink" width="36" height="36"><defs><style type="text/css"></style></defs><path d="M976.543663 510.494717c5.213745 233.304603-177.669492 462.311321-461.975676 467.043089C258.89391 981.793736 49.922505 770.779811 47.370379 518.28003 44.809043 264.409019 242.658134 51.207265 504.988818 46.476521 766.818081 41.757033 975.632921 250.130827 976.543663 510.494717zM895.996163 512.451278c7.887644-188.728362-152.407132-383.682519-381.722888-385.837602-212.192773-2.000564-382.440226 171.809017-386.67569 381.920386-3.78214 187.578166 147.716296 386.604058 383.214868 388.578016C728.78486 898.946866 901.189442 716.730825 895.996163 512.451278z" p-id="4962"></path><path d="M392.544863 537.631774c0 20.971637-11.025101 35.420721-33.011858 43.36567-22.019503 7.960299-50.227961 11.92561-84.593654 11.92561L171.774737 592.923054 171.774737 407.53374l107.289562 0c34.366715 0 60.158125 4.709255 77.372182 14.093996 17.183358 9.400091 25.791409 20.59813 25.791409 33.608445 0 13.009292-5.867638 22.596647-17.538445 28.728298-11.70253 6.15007-23.727401 10.299577-36.106336 12.468986 16.505929 2.167363 31.272237 6.691399 44.3593 13.550621C385.999796 516.862751 392.544863 526.077623 392.544863 537.631774zM334.773088 455.236182c0-9.385764-5.158487-16.263405-15.474436-20.599154-10.316973-4.336772-23.049972-6.504134-38.170345-6.504134l-61.897745 0 0 57.458643 59.83476 0c15.120372 0 28.177759-2.337231 39.20286-7.045463C329.260537 473.852168 334.773088 466.077088 334.773088 455.236182zM343.026052 537.631774c0-11.55415-7.221472-19.684318-21.664416-24.393573-14.44192-4.691859-30.626531-7.048533-48.486294-7.048533l-53.644781 0 0 66.13321 47.454802 0c24.759917 0 43.651173-2.523473 56.740282-7.587815C336.482009 559.687092 343.026052 550.642089 343.026052 537.631774z" p-id="4963"></path><path d="M626.106316 540.883841c0 16.635889-9.993608 29.814026-29.916357 39.571251-19.956517 9.757225-47.133483 14.637372-81.499176 14.637372-34.398438 0-61.22134-5.047969-80.467683-15.179724-19.278065-10.112312-28.885887-22.765493-28.885887-37.944194l0-7.588839 47.454802 0 0 6.504134c0 10.840906 6.189979 19.160385 18.569938 24.934902 12.378935 5.79396 26.822902 8.673543 43.328831 8.673543 21.985734 0 38.170345-3.065825 48.486294-9.213849 10.31595-6.133697 15.47546-13.553691 15.47546-22.225187 0-7.218402-6.191003-13.907755-18.568914-20.057825-12.380982-6.132674-30.272467-11.740392-53.646827-16.804734-33.011858-6.504134-56.739259-13.72049-71.181179-21.681812-14.443967-7.945973-21.664416-17.34811-21.664416-28.187993 0-15.177678 9.960863-27.460422 29.916357-36.862559 19.923772-9.383718 43.652196-14.092973 71.184249-14.092973 35.752272 0 61.542658 5.606695 77.372182 16.803711 15.796778 11.215436 23.727401 23.308869 23.727401 36.319184l-47.454802 0c1.353834-7.944949-2.772136-15.177678-12.380982-21.681812-9.639544-6.505158-23.405059-9.758248-41.263799-9.758248-16.505929 0-29.595039 2.355651-39.20286 7.04751-9.639544 4.710278-14.442944 11.028171-14.442944 18.971074 0 6.505158 3.771907 12.112875 11.347442 16.804734 7.543813 4.710278 27.145244 10.299577 58.802244 16.803711 30.241768 6.505158 53.646827 14.280238 70.15378 23.308869C617.852328 519.031137 626.106316 529.32969 626.106316 540.883841z" p-id="4964"></path><path d="M867.920734 537.631774c0 20.971637-11.024078 35.420721-33.011858 43.36567-22.020526 7.960299-50.227961 11.92561-84.593654 11.92561L647.151631 592.923054 647.151631 407.53374l107.289562 0c34.368762 0 60.158125 4.709255 77.373205 14.093996 17.184381 9.400091 25.790386 20.59813 25.790386 33.608445 0 13.009292-5.867638 22.596647-17.536398 28.728298-11.703553 6.15007-23.728424 10.299577-36.108383 12.468986 16.506952 2.167363 31.272237 6.691399 44.360324 13.550621C861.376691 516.862751 867.920734 526.077623 867.920734 537.631774zM810.151006 455.236182c0-9.385764-5.15951-16.263405-15.47546-20.599154-10.316973-4.336772-23.050995-6.504134-38.171368-6.504134l-61.897745 0 0 57.458643 59.83476 0c15.120372 0 28.177759-2.337231 39.203884-7.045463C804.638455 473.852168 810.151006 466.077088 810.151006 455.236182zM818.402947 537.631774c0-11.55415-7.221472-19.684318-21.663392-24.393573-14.442944-4.691859-30.626531-7.048533-48.487318-7.048533l-53.645804 0 0 66.13321 47.455825 0c24.759917 0 43.650149-2.523473 56.740282-7.587815C811.858904 559.687092 818.402947 550.642089 818.402947 537.631774z" p-id="4965"></path></svg>