<?xml version="1.0" standalone="no"?><!DOCTYPE svg PUBLIC "-//W3C//DTD SVG 1.1//EN" "http://www.w3.org/Graphics/SVG/1.1/DTD/svg11.dtd"><svg t="1490942117094" class="icon" style="" viewBox="0 0 1025 1024" version="1.1" xmlns="http://www.w3.org/2000/svg" p-id="4197" xmlns:xlink="http://www.w3.org/1999/xlink" width="36.03515625" height="36"><defs><style type="text/css"></style></defs><path d="M510.73 416.169c-40.694 81.618-87.076 161.68-137.6 237.701h-0.01C242.893 661.72 115.666 681.272 0.02 712.837H0C165.31 532.311 302.065 296.934 374.226 63.396h0.235c31.38 115.82 78.152 235.909 136.27 352.773z" fill="#A52227" p-id="4198"></path><path d="M373.115 653.89c91.223-5.498 183.915-5.263 275.159 0.61 72.673 109.47 154.06 210.263 240.061 294.625-239.472-53.852-512.967-55.158-752.486-1.009l-0.215-0.373 3.968-3.994 3.958-4.014 3.952-4.035 3.948-4.055 3.942-4.085 3.932-4.096 3.927-4.127 3.917-4.142 3.922-4.168 3.907-4.183v-0.005l3.896-4.203v-0.006l3.886-4.218v-0.006l3.891-4.244 0.005-0.005 3.871-4.265 0.005-0.005 3.86-4.286 0.006-0.01 3.85-4.3h0.005l3.86-4.337 3.846-4.352h0.005l3.84-4.373 0.01-0.005 3.82-4.378 0.01-0.005 3.825-4.403 0.01-0.01 3.804-4.419 0.01-0.005 3.8-4.439 0.004-0.01 3.79-4.455 0.01-0.005c50.652-59.668 99.066-124.323 144.189-192.204z" fill="#5D2721" p-id="4199"></path><path d="M648.284 654.5c-50.514-76.104-96.834-156.411-137.559-238.31C568.94 299.376 615.475 179.347 645.78 63.395h0.031C720.108 297.846 856.694 534.88 1024 714.127l-0.169 0.287c-116.362-31.396-244.429-51.471-375.547-59.914z" fill="#D82529" p-id="4200"></path><path d="M648.269 654.5c131.118 8.443 259.2 28.518 375.562 59.909l-135.5 234.716C802.33 864.763 720.946 763.971 648.268 654.5z" fill="#A32129" p-id="4201"></path><path d="M373.125 653.87C300.928 762.486 220.247 862.863 135.63 947.738L0.02 712.832c115.646-31.56 242.873-51.113 373.105-58.962z" fill="#D82529" p-id="4202"></path><path d="M645.78 63.396c-30.305 115.952-76.835 235.965-135.05 352.773-58.117-116.864-104.888-236.954-136.263-352.773H645.78z" fill="#5B181F" p-id="4203"></path></svg>