<?xml version="1.0" standalone="no"?><!DOCTYPE svg PUBLIC "-//W3C//DTD SVG 1.1//EN" "http://www.w3.org/Graphics/SVG/1.1/DTD/svg11.dtd"><svg t="1490942171351" class="icon" style="" viewBox="0 0 1024 1024" version="1.1" xmlns="http://www.w3.org/2000/svg" p-id="5292" xmlns:xlink="http://www.w3.org/1999/xlink" width="36" height="36"><defs><style type="text/css"></style></defs><path d="M512.015058 0C229.278903 0 0 229.278903 0 512.015058 0 794.721096 229.278903 1023.999999 512.015058 1023.999999 794.751212 1023.999999 1023.999999 794.721096 1023.999999 512.015058 1023.999999 229.278903 794.751212 0 512.015058 0ZM623.085673 829.656539C621.429251 790.414399 628.687391 726.235581 602.124407 711.960236L432.02494 711.08685C402.691215 734.577923 407.238845 786.559453 402.871915 829.656539L187.868357 829.656539 271.080968 252.197759 400.161407 252.197759 406.365459 104.234111 628.898208 104.234111 630.494397 248.643981 747.829298 248.643981 832.728448 829.656539 623.085673 829.656539ZM456.058115 364.352577 456.058115 443.890944 398.776036 443.890944 398.776036 364.352577C380.826446 347.788359 361.039734 347.788359 339.385782 364.352577L339.385782 615.466133C359.172495 628.175406 378.959207 626.669568 398.776036 615.466133L398.776036 512.045175 456.058115 512.045175 456.058115 615.466133C472.622334 628.928325 492.951148 625.946766 515.056851 615.466133L515.056851 364.352577C495.390606 348.721978 475.724361 348.721978 456.058115 364.352577ZM549.901943 613.388076C568.935737 626.338283 589.445251 628.085056 612.123172 613.388076L612.123172 531.319902 693.980529 531.319902 693.980529 466.659215 612.123172 466.659215 612.123172 417.960412 693.980529 417.960412 693.980529 355.377783 549.901943 355.377783 549.901943 613.388076Z" p-id="5293"></path></svg>