<?xml version="1.0" standalone="no"?><!DOCTYPE svg PUBLIC "-//W3C//DTD SVG 1.1//EN" "http://www.w3.org/Graphics/SVG/1.1/DTD/svg11.dtd"><svg t="1490942134887" class="icon" style="" viewBox="0 0 1024 1024" version="1.1" xmlns="http://www.w3.org/2000/svg" p-id="4636" xmlns:xlink="http://www.w3.org/1999/xlink" width="36" height="36"><defs><style type="text/css"></style></defs><path d="M931.924443 770.025635s46.468334-55.759955 49.092092-79.764672c0 0-1.26276-33.151028-27.815509 18.626219 0 0 6.620791-31.860638-12.019755-15.864316 0 0-90.369194 104.928794-128.871089 110.243847 0 0-285.694811 168.774915-415.96783-171.390485 0 0-55.809073-160.849408 75.726705-281.780665 131.591037-120.994702 260.503059-108.918665 378.74302-21.228487 0 0 59.806107-67.843154 85.081771-54.469566 0 0 22.595624-13.372565 11.935843-33.220612l-33.199123-42.4713s-130.21776 21.228487-127.594003-51.839669c0 0 9.243525-54.469566-85.053118-33.241079 0 0-22.553669-21.228487-21.249976-33.227775 0 0 6.634094-31.853475-95.68527-14.614859 0 0-151.480017 18.605753-317.631174 208.615294 0 0-167.399591 136.789433-167.399591-4.066618 0 0-91.715865 93.083002-42.526559 167.463036 0 0 55.851029 78.391395 162.1531 14.622022 0 0-33.18582 257.783111 136.837529 392.080793 0 0 178.074721 164.708296 382.75438 106.303095 0 0 171.383322-35.905768 236.506529-208.761628-0.001023 0-30.53648 30.611182-43.817972 27.987425zM549.196669 659.732669H832.214511V444.406532l-283.016819 1.381464v213.944673h-0.001023z" fill="#C9171D" p-id="4637"></path></svg>