<?xml version="1.0" standalone="no"?><!DOCTYPE svg PUBLIC "-//W3C//DTD SVG 1.1//EN" "http://www.w3.org/Graphics/SVG/1.1/DTD/svg11.dtd"><svg t="1490942064858" class="icon" style="" viewBox="0 0 1024 1024" version="1.1" xmlns="http://www.w3.org/2000/svg" p-id="3218" xmlns:xlink="http://www.w3.org/1999/xlink" width="36" height="36"><defs><style type="text/css"></style></defs><path d="M924.69 528.805H754.812s-12.207 0-17.293 2.073c-3.051 1.037-13.224 9.33-13.224 9.33L514.75 753.74c-4.07 3.11-9.155 3.11-13.225 0l-222.77-227.01c-3.052-3.11-3.052-9.329 0-12.439l223.789-227.009a7.544 7.544 0 0 1 12.207 0l196.322 200.06s8.137 9.329 17.293 12.438c9.154 2.073 22.378-9.33 22.378-9.33l90.533-94.327L576.8 128.689C520.852 71.677 459.819 76.86 435.406 79.97c-212.6 36.28-366.2 221.827-366.2 442.616 0 248.777 202.428 447.798 439.44 447.798 232.943 0 428.25-190.73 439.439-431.213 0-3.11 1.017-5.183-5.086-9.33-6.104-4.146-18.31-1.036-18.31-1.036zM646.986 121.433l231.927 234.264 64.084-63.231s6.103-10.366 8.137-19.695c1.018-5.183-9.154-13.474-9.154-13.474l-141.393-145.12C667.332-21.613 518.818 43.69 518.818 43.69s62.05 1.037 128.17 77.743z" fill="#13227A" p-id="3219"></path></svg>