<?xml version="1.0" standalone="no"?><!DOCTYPE svg PUBLIC "-//W3C//DTD SVG 1.1//EN" "http://www.w3.org/Graphics/SVG/1.1/DTD/svg11.dtd"><svg t="1490942087023" class="icon" style="" viewBox="0 0 1024 1024" version="1.1" xmlns="http://www.w3.org/2000/svg" p-id="3544" xmlns:xlink="http://www.w3.org/1999/xlink" width="36" height="36"><defs><style type="text/css"></style></defs><path d="M686.17 341.233c-54.09 0-105.351 8.373-151.22 23.311 71.378 11.083 126.042 72.824 126.042 147.366 0 135.56-158.991 245.428-355.117 245.428-61.17 0-118.784-10.661-169.05-29.515C237.96 852.209 365.928 953.886 511.91 1024 735.383 916.63 916.63 735.443 1024 512c-2.861-5.933-5.813-11.836-8.764-17.71-52.796-89.78-180.224-153.057-329.066-153.057z" fill="#d5ab44" p-id="3545"></path><path d="M337.288 680.177c52.254 0 101.827-7.77 146.492-21.775-67.042-12.77-118.122-70.355-120.983-140.378-0.09-1.958-0.15-3.976-0.15-6.114 0-135.56 159.02-245.46 355.147-245.46 61.199 0 118.814 10.723 169.08 29.546C785.77 171.701 657.86 70.084 511.91 0 288.557 107.31 107.37 288.407 0 511.699c46.712 97.852 180.073 168.478 337.288 168.478z" fill="#095caa" p-id="3546"></path></svg>