<?xml version="1.0" standalone="no"?><!DOCTYPE svg PUBLIC "-//W3C//DTD SVG 1.1//EN" "http://www.w3.org/Graphics/SVG/1.1/DTD/svg11.dtd"><svg t="1490942107085" class="icon" style="" viewBox="0 0 1024 1024" version="1.1" xmlns="http://www.w3.org/2000/svg" p-id="3979" xmlns:xlink="http://www.w3.org/1999/xlink" width="36" height="36"><defs><style type="text/css"></style></defs><path d="M47.603 567.726V378.17c64.08 6.05 123.954-2.948 162.15-29.69 31.307-21.917 34.919-53.059 57.094-84.5 46.896-66.491 151.263-161.314 276.34-130.177 27.676 6.89 51.897 19.182 73.082 31.974 27.4 15.986 54.813 31.975 82.216 47.96l-2.283 262.636c-18.152-105.08-127.985-190.73-258.07-139.311-71.447 28.24-84.31 103.67-127.892 159.866-50.043 64.523-154.086 77.198-262.637 70.798z" p-id="3980"></path><path d="M447.266 446.683H575.16v127.893H447.266V446.683z" p-id="3981"></path><path d="M977.108 453.534v189.557c-64.077-6.053-123.954 2.947-162.15 29.689-31.306 21.916-34.92 53.06-57.094 84.5-46.896 66.49-151.264 161.311-276.34 130.176-27.675-6.89-51.897-19.184-73.081-31.972-27.404-15.987-54.813-31.976-82.217-47.96 0.76-87.538 1.524-175.1 2.283-262.636 18.153 105.077 127.984 190.728 258.07 139.313 71.447-28.243 84.31-103.673 127.892-159.868 50.04-64.526 154.084-77.2 262.637-70.799z" p-id="3982"></path></svg>