<?xml version="1.0" standalone="no"?><!DOCTYPE svg PUBLIC "-//W3C//DTD SVG 1.1//EN" "http://www.w3.org/Graphics/SVG/1.1/DTD/svg11.dtd"><svg t="1490941871204" class="icon" style="" viewBox="0 0 1024 1024" version="1.1" xmlns="http://www.w3.org/2000/svg" p-id="1987" xmlns:xlink="http://www.w3.org/1999/xlink" width="36" height="36"><defs><style type="text/css"></style></defs><path d="M618.238 636.497l-110.589 38.617 55.441 98.151-44.537 50.593-102.227-51.365-33.527 113.349-65.746 0.637-34.917-108.41-100.672 59.168-46.324-48.53 48.3-98.978-110.066-33.377-4.412-63.974 112.647-37.834-57.5-101.14 46.324-48.53 105.732 51.605 24.418-113.371h68.384l36.372 107.46 98.303-57.73 52.829 47.329-54.164 101.666 113.726 32.896 2.205 61.767z" fill="#DC771D" p-id="1988"></path><path d="M507.118 431.851l-128.932 162.513c1.872 4.030 3.141 8.713 3.551 13.639l203.076-3.137-204.26 16.866c-1.395 5.431-3.682 10.189-6.723 14.361l150.007 141.753-161.809-130.781c-4.471 2.832-9.737 4.866-15.381 5.758l8.75 205.723-22.449-205.781c-4.555-0.786-8.634-2.193-12.379-4.15l-141.807 143.914 125.971-158.379c-2.017-3.127-3.65-6.518-4.783-10.138l-197.565-3.15 196.74-18.726c1.382-5.999 3.89-11.265 7.308-15.808l-138.145-142.382 150.633 131.326c5.155-3.063 11.275-5.070 17.815-5.563l3.217-198.671 14.236 201.067c2.036 0.734 4.016 1.585 5.889 2.615l147.040-142.868z" fill="#FFFFFF" p-id="1989"></path><path d="M944.605 346.835l-79.565 36.174 47.842 69.155-29.669 40.603-79.442-31.236-17.245 86.471-48.811 4.919-33.283-78.164-70.802 50.766-37.709-32.915 29.191-76.794-84.047-17.343-7.609-47.225 81.145-35.732-49.571-71.237 31.139-39.188 82.060 31.178 10.474-85.872 50.813-4.629 34.303 77.365 69.139-49.541 42.461 31.583-33.369 79.189 86.734 16.737 5.821 45.737z" fill="#EEBE19" p-id="1990"></path><path d="M848.29 202.655l-84.811 129.45c1.887 3.264 3.22 7.089 3.759 11.165l150.495-17.353-150.644 26.356c-0.564 3.537-1.648 6.716-3.182 9.619l120.222 96.653-129.088-86.198c-3.445 2.628-7.553 4.583-12.022 5.584l21.406 151.963-30.609-151.343c-2.707-0.214-5.215-0.737-7.596-1.537l-97.518 115.796 82.887-126.181c-3.097-3.907-5.296-8.662-6.208-13.861l-145.054 17.692 144.929-27.229c0.537-3.983 1.753-7.583 3.535-10.83l-111.463-97.824 120.82 87.358c4.005-2.886 8.852-4.861 14.108-5.521l-12.301-147.617 24.187 148.4c1.564 0.407 3.091 0.905 4.556 1.542l99.593-116.083z" fill="#FFFFFF" p-id="1991"></path></svg>