<?xml version="1.0" standalone="no"?><!DOCTYPE svg PUBLIC "-//W3C//DTD SVG 1.1//EN" "http://www.w3.org/Graphics/SVG/1.1/DTD/svg11.dtd"><svg t="1490942019282" class="icon" style="" viewBox="0 0 1024 1024" version="1.1" xmlns="http://www.w3.org/2000/svg" p-id="2567" xmlns:xlink="http://www.w3.org/1999/xlink" width="36" height="36"><defs><style type="text/css"></style></defs><path d="M516.849 612.846l94.297 50.144-94.297 50.054v60.143l235.664-118.57L516.849 554.45v58.396z m0-459.04v-48.428h3.253c169.075-5.06 505.479 58.396 503.853 255.42H867.89c-22.708-148.596-188.501-212.052-351.041-206.993zM422.613 662.99l87.73-53.427 6.505 3.283V554.45l-22.738-10.029s-341.343 13.372-312.1-230.333c35.809-98.512 185.308-156.969 334.838-160.281v-48.428c-185.278 4.969-443.68 56.71-492.469 228.707-1.626 6.656-3.222 11.655-3.222 16.715v23.34c9.698 98.542 151.126 211.993 383.537 211.993l-125.105 76.858 222.623 116.823 14.637-6.626v-60.143l-3.253 1.687-90.983-51.741z" fill="#009B89" p-id="2568"></path><path d="M602.983 362.455l-87.73 51.741-6.535-1.626v58.427l21.142 8.311s341.313-11.685 313.666 230.393c-37.375 98.482-185.248 156.969-334.807 160.251v48.458c185.339-6.656 443.71-56.74 492.469-228.707 1.626-4.999 3.283-10.029 3.283-16.745v-21.654c-9.758-100.198-152.812-212.052-383.597-213.739l123.539-75.111-221.027-118.54-14.667 8.403v58.366l3.253-1.657 91.013 53.427z m-94.266 50.115l-94.297-50.114 94.297-51.771v-58.366L273.053 369.142l235.664 101.855V412.57z m0 457.383v48.458h-3.253C336.509 921.754 0.014 859.984 0.014 662.991h157.661c22.768 146.91 186.905 210.335 351.041 206.962z" fill="#2C5082" p-id="2569"></path></svg>