<?xml version="1.0" standalone="no"?><!DOCTYPE svg PUBLIC "-//W3C//DTD SVG 1.1//EN" "http://www.w3.org/Graphics/SVG/1.1/DTD/svg11.dtd"><svg t="1490942078666" class="icon" style="" viewBox="0 0 1024 1024" version="1.1" xmlns="http://www.w3.org/2000/svg" p-id="3435" xmlns:xlink="http://www.w3.org/1999/xlink" width="36" height="36"><defs><style type="text/css"></style></defs><path d="M427.008 215.552c43.52-19.456 87.04-38.4 130.048-57.856-12.288-31.232-24.064-62.976-36.352-94.208-23.552-11.776-52.224-15.872-94.208-14.336-29.184 9.728-57.856 19.456-87.04 29.184 39.424 40.96 78.848 64.512 87.552 137.216zM752.64 121.856C723.968 91.648 673.28 71.168 622.592 64l21.504 50.688c23.04 21.504 64.512 10.752 108.544 7.168zM289.28 331.776c16.896-19.456 33.792-38.4 50.688-57.856-2.56-21.504-4.608-43.52-7.168-65.024-12.288-32.256-19.456-38.4-50.688-50.688-19.456-2.56-38.4-4.608-57.856-7.168-25.6 22.528-43.52 30.208-57.856 65.024-2.56 21.504-4.608 43.52-7.168 65.024 38.4 41.984 58.88 56.832 130.048 50.688zM665.6 215.552c-7.168 53.248-14.336 105.984-21.504 159.232 101.376-35.328 219.648-14.336 304.128 21.504-9.216-67.072-39.424-97.28-57.856-152.064-39.936-28.16-84.992-38.912-159.232-36.352-22.016 3.072-43.52 5.632-65.536 7.68zM252.928 556.032v7.168C391.68 601.088 596.48 406.016 564.224 244.736c-192 99.84-184.32 137.216-311.296 311.296zM86.528 331.776c-14.848 52.736-30.208 94.208-29.184 166.4 33.792 19.456 67.584 38.4 101.376 57.856 21.504-43.52 43.52-87.04 65.024-130.048-68.096-18.944-96.256-50.688-137.216-94.208zM962.56 505.344c-77.312-32.256-128.512-61.44-253.44-57.856-231.936 78.848-310.272 208.384-209.92 499.2 57.856 27.648 126.464 1.536 180.736-14.336-201.216-226.304 9.728-473.088 246.272-267.776 2.56 4.608 4.608 9.728 7.168 14.336 15.36-54.272 30.208-100.352 29.184-173.568zM115.712 743.936c4.608 2.56 9.728 4.608 14.336 7.168 2.56-36.352 4.608-72.192 7.168-108.544l-72.192-29.184a17642.197 17642.197 0 0 0 50.688 130.56zM376.32 642.56c-50.688 4.608-101.376 9.728-152.064 14.336-11.776 99.84 0 135.168 0 202.752 49.664 37.376 97.28 74.752 173.568 87.04-19.968-97.28-64-146.944-21.504-304.128z" fill="#F7B706" p-id="3436"></path><path d="M745.472 671.744l-29.184 21.504c-29.184 16.384-37.888 39.424-43.52 79.36 15.872 37.376 27.648 57.344 57.856 79.36 21.504 2.56 43.52 4.608 65.024 7.168l57.856-57.856c2.56-24.064 4.608-48.128 7.168-72.192-12.288-14.336-24.064-29.184-36.352-43.52-26.112-4.096-52.736-9.216-78.848-13.824z" fill="#F7B706" p-id="3437"></path></svg>