<?xml version="1.0" standalone="no"?><!DOCTYPE svg PUBLIC "-//W3C//DTD SVG 1.1//EN" "http://www.w3.org/Graphics/SVG/1.1/DTD/svg11.dtd"><svg t="1490942059315" class="icon" style="" viewBox="0 0 1024 1024" version="1.1" xmlns="http://www.w3.org/2000/svg" p-id="3110" xmlns:xlink="http://www.w3.org/1999/xlink" width="36" height="36"><defs><style type="text/css"></style></defs><path d="M727.916 240.502C786.237 263.69 832.302 312.14 852.403 372.5c-14.658-3.404-29.68-4.787-45.378-4.787-27.96 0-54.554 5.146-79.11 15.002V240.502z m0 543.36c24.555 9.902 51.83 15.34 80.148 15.34C926.787 799.201 1024 702.33 1024 583.29V224.138L864.338 64.82v359.875h-0.681c0.323 5.089 0.68 10.214 0.68 15.344v0.681c0 91.09-56.596 168.848-136.427 200.92v142.223zM591.089 582.63v0.66c0 119.04-96.814 215.911-215.578 215.911-28.278 0-55.235-5.442-79.785-15.34v-142.57c79.509-31.73 136.105-109.83 136.105-200.577v-0.68c0.358-118.385 97.208-215.235 215.895-215.235 28.319 0 55.276 5.447 80.19 15.703v142.213c-79.832 31.723-136.428 109.491-136.428 199.915h-0.4z m136.827 58.998c-24.914 9.528-51.513 15.002-79.468 15.002-15.662 0-30.72-1.7-45.42-4.772 20.148 60.001 66.171 108.472 124.893 131.999V641.628h-0.005z m-432.19-258.913c24.55-9.534 51.512-15.002 79.785-15.002 15.38 0 30.362 1.383 45.061 4.787-20.106-60.364-66.17-108.81-124.851-132.341v142.556z m0 401.147c-58.68-23.189-104.704-72.003-125.174-131.999 14.659 3.072 29.681 4.772 45.343 4.772 27.996 0 54.917-5.468 79.831-15.34v142.567z m0-543.703c-24.914-9.913-51.835-15.36-79.831-15.36C96.855 224.799 0 321.649 0 440.714v359.189L159.657 959.18V599.327h0.323c-0.323-4.808-0.323-9.892-0.323-15.043v-0.998c0-90.747 56.238-168.494 136.07-200.576V240.159z" fill="#2D5082" p-id="3111"></path></svg>