<?xml version="1.0" standalone="no"?><!DOCTYPE svg PUBLIC "-//W3C//DTD SVG 1.1//EN" "http://www.w3.org/Graphics/SVG/1.1/DTD/svg11.dtd"><svg t="1490942013867" class="icon" style="" viewBox="0 0 1134 1024" version="1.1" xmlns="http://www.w3.org/2000/svg" p-id="2459" xmlns:xlink="http://www.w3.org/1999/xlink" width="39.8671875" height="36"><defs><style type="text/css"></style></defs><path d="M651.691475 177.703644l-63.525292 101.529018 63.525292 50.764509z m0-177.703644v101.529018L321.192788 533.110931 524.585168 685.404458l127.106307-164.998585v456.936305C473.653487 1066.221862 245.185335 1028.106687 117.800408 863.108102-34.716014 698.109516-34.716014 456.936305 92.390292 279.232662L308.48773 0z m0 101.529018V0h76.286073z m0 228.468153l50.875957 38.115175 25.410116-38.115175V126.939135h-38.115175l-38.170898 50.764509z m0 647.345007c38.170899-12.705058 50.875957-25.410116 76.286073-38.115175V507.700814h-50.875957l-25.410116 12.705059z m127.106306-469.641364v393.466739a174.471655 174.471655 0 0 1-50.820233 38.05945V507.700814z m0-152.293527v63.469568l-38.115175-25.410117z m0-228.468152v139.588469l-50.820233 63.469567V126.939135z m0 139.588469l38.170899-38.059451V126.939135h-38.170899z m0 152.349251l38.170899 38.05945V304.642778l-38.170899 50.764509z m0 482.290698l38.170899-38.059451V507.700814h-38.170899z m63.581015-393.466739v304.642779l-12.705058 38.059451a12.426439 12.426439 0 0 0-12.705058 12.705058V507.700814z m0-253.822545v228.468153L816.96868 456.936305V304.642778z m0-126.939134v50.764509L816.96868 228.468153V126.939135z m0 50.764509v-50.764509H880.438247z m0 304.642778l12.705058 12.649334 63.525292-76.118901V164.998585l-76.23035 88.879684z m0 329.997171V507.700814h76.23035v215.763095z m76.23035-647.345008z m0 558.465324z m0-304.587054V164.998585l25.46584-38.05945h190.687322z m0 304.587054l165.277205-215.763095h-165.277205z" fill="#EF9B2C" p-id="2460"></path></svg>