<?xml version="1.0" standalone="no"?><!DOCTYPE svg PUBLIC "-//W3C//DTD SVG 1.1//EN" "http://www.w3.org/Graphics/SVG/1.1/DTD/svg11.dtd"><svg t="1490942123050" class="icon" style="" viewBox="0 0 1024 1024" version="1.1" xmlns="http://www.w3.org/2000/svg" p-id="4310" xmlns:xlink="http://www.w3.org/1999/xlink" width="36" height="36"><defs><style type="text/css"></style></defs><path d="M163.581 560.366l-4.108 23.373h123.581l5.496-23.373H163.581z m314.45 23.372l4.108-23.373H342.097l-5.496 23.373h141.43z m78.279-118.12l-19.237 94.748-5.441 23.373-19.236 94.74H317.39l-4.108 21.984h227.87l30.256-140.097 19.264-94.747H863.93l-20.597 94.747h-218.32L575.52 795.149H292.66l-4.109 22.012h317.198l30.201-138.681 19.264-94.74h183.985l-19.238 94.74H689.467L660.654 817.16l-20.57 94.754H214.38l49.438-233.435H85.302l20.597-94.74 4.109-23.373 20.57-94.747h177.155l49.438-233.436h195.005l24.76-118.078h361.109l-20.57 94.72H609.856l-4.136 23.358-19.208 94.747H391.48l-5.497 21.957h229.313l4.136-21.957 20.625-94.747h273.256l-20.57 94.747H674.367l-24.705 116.732H366.829l-5.496 21.957H556.31v-0.001z" fill="#007047" p-id="4311"></path></svg>