<?xml version="1.0" standalone="no"?><!DOCTYPE svg PUBLIC "-//W3C//DTD SVG 1.1//EN" "http://www.w3.org/Graphics/SVG/1.1/DTD/svg11.dtd"><svg t="1490942072812" class="icon" style="" viewBox="0 0 1024 1024" version="1.1" xmlns="http://www.w3.org/2000/svg" p-id="3326" xmlns:xlink="http://www.w3.org/1999/xlink" width="36" height="36"><defs><style type="text/css"></style></defs><path d="M469.567 718.979l138.816-350.671 144.833 350.67h-283.65z m-290.704 0l138.816-350.671 144.833 350.67h-283.65z m829.782-79.887l-5.81 19.92h-92.959l-9.544-19.92h108.313m6.018-28.22H888.504l-9.337-21.164h139.023m3.32-28.22H867.34l-9.338-21.372H1024m0-28.22H846.175l-8.3-21.164H1024m-2.49-28.22h-196.5l-8.3-21.165h202.518m-4.565-28.22H805.09l-9.545-21.164h214.345" fill="#E41E26" p-id="3327"></path><path d="M512.104 0h20.957l22.41 2.282 21.164 1.245 20.128 3.528 21.164 3.527 19.92 4.565 20.127 6.018 19.92 5.81 9.338 3.527 9.544 3.528 18.883 8.3 18.675 8.3 17.637 9.337 17.637 9.337 17.845 10.583 16.392 11.827 16.6 11.827 15.147 11.828 15.355 12.864 15.355 14.11 14.11 14.11 14.11 14.11 12.864 15.355 6.018 8.3 5.81 8.092 12.865 16.6 10.79 16.392 10.582 16.6 10.375 17.637 8.3 18.675 9.545 17.845 7.054 18.675 7.055 20.127 7.055 18.882h-218.91L648.43 47.102 507.33 403.79 358.971 50.63 97.73 724.995l118.896 148.36h604.855L932.08 711.925l-10.583-24.692h71.794l-7.055 18.882-8.3 17.637-8.092 17.637-8.3 16.6-10.582 17.638-9.337 16.392-11.828 15.355-10.582 15.147-11.828 15.562-12.864 15.148-12.865 13.072-14.318 14.11-14.11 12.865-14.11 13.072-15.147 11.827-15.354 11.62-15.355 10.583-16.392 10.582-16.6 9.337-17.638 9.545-17.637 8.093-17.637 7.262-18.882 7.055-17.638 7.055-18.882 5.81-19.92 4.772-18.882 4.773-19.92 3.527-9.337 1.038-10.79 1.245-19.92 2.282-20.127 1.245h-46.894l-25.938-2.49-25.937-3.32-25.937-4.772-24.692-6.018-23.447-5.81-23.655-8.3-23.655-9.337-22.202-10.582-22.41-10.583-10.582-7.055-10.583-5.81-21.164-13.072-20.128-14.11-19.92-15.147-9.337-8.3-8.3-8.3-9.337-8.3-8.3-8.3-17.637-17.637-16.6-18.675-6.847-9.545-7.263-10.582-15.147-19.92-6.017-9.545-7.055-10.582-5.81-10.582-6.018-11.828-11.62-20.957-10.582-23.655-8.3-22.41-8.3-24.692-7.055-23.447-3.527-13.072-2.283-11.62L8.3 602.573l-2.49-12.865-3.528-24.692-1.245-27.183L0 524.97v-13.073l1.037-25.73 1.245-26.144 3.528-25.73 4.772-25.937 5.81-24.692 7.055-23.655 8.3-23.447 8.3-23.447 10.582-22.41 11.62-22.41 6.018-10.582 5.81-10.583 13.072-21.164 15.147-20.128 14.11-19.92 8.3-9.337 8.3-8.3 8.3-9.337 9.337-8.3 17.637-17.637 17.638-16.6 10.582-7.055 9.337-7.055 20.128-15.147 10.582-6.017 10.582-7.055 10.583-6.018 10.582-5.81 22.41-11.62 22.202-10.582 23.655-9.545 23.655-7.055 23.447-7.055 12.865-3.527 11.827-2.283L421.22 8.3l13.072-2.49 25.937-3.528 25.938-1.245L499.03 0h13.073z" fill="#E41E26" p-id="3328"></path></svg>