<?xml version="1.0" standalone="no"?><!DOCTYPE svg PUBLIC "-//W3C//DTD SVG 1.1//EN" "http://www.w3.org/Graphics/SVG/1.1/DTD/svg11.dtd"><svg t="1490942167559" class="icon" style="" viewBox="0 0 1024 1024" version="1.1" xmlns="http://www.w3.org/2000/svg" p-id="5182" xmlns:xlink="http://www.w3.org/1999/xlink" width="36" height="36"><defs><style type="text/css"></style></defs><path d="M488.63824 1.529088c258.518272-4.013856 419.277305 135.716803 494.537106 315.57237 26.154914 62.50318 60.856339 181.560432 26.288027 261.613993-53.784306 124.555825-249.613382 209.007221-407.459297 232.182461 93.593499-136.959187 130.91451-327.093434 50.932625-508.513927-11.76681-26.689071-28.276183-74.408223-52.576054-88.294595-28.015077-12.422134-64.998188-9.152343-98.578394-14.715766-85.03675-14.089454-203.213411-17.907054-292.451739-3.269791-37.785199 5.449083-75.580637 10.901579-113.365836 16.350661 0.547809-1.634895 1.095619-3.269791 1.643428-4.904686 24.642892-26.70443 49.29261-53.415687 73.933796-80.120117 41.572081-33.107486 87.29625-64.644927 139.653863-86.659699 34.428373-14.475139 73.805803-24.668491 113.365836-32.701322C445.919343 5.889378 467.282204 3.70838 488.63824 1.529088z" p-id="5183"></path><path d="M416.347872 212.456202c1.643428 0 3.286857 0 4.928578 0-93.593499 136.959187-130.91451 327.093434-50.932625 508.513927 11.76681 26.689071 28.276183 74.408223 52.576054 88.294595 27.928042 4.36029 55.864617 8.72058 83.792659 13.08087 119.461709 20.374757 314.060347 18.751807 420.603311-13.08087-7.456011 17.577686-23.323712 28.646509-34.501755 42.512402-81.097983 100.585322-272.542877 206.061679-474.822793 161.873423-92.929643-20.301374-166.674009-56.832243-230.016822-106.281858C77.231643 820.920606-83.570054 554.313185 51.605766 385.7756c59.443297-74.112986 168.107529-118.91902 269.448863-150.429155C352.81563 227.716364 384.586871 220.084576 416.347872 212.456202z" p-id="5184"></path><path d="M399.917002 389.045391c47.557027 1.017117 99.452159 14.500738 152.797876 6.539582 24.095083-1.634895 48.196991-3.269791 72.292074-4.904686 3.28515 3.269791 6.572007 6.541288 9.857157 9.811079-2.737341 39.783594-5.476388 79.579134-8.215435 119.361022 2.191238 34.878908 4.380769 69.768055 6.572007 104.645256-3.28515 2.725395-6.572007 5.450789-9.857157 8.176184-22.999464-1.634895-46.005754-3.269791-69.005217-4.904686-52.023125 1.634895-104.061608 3.269791-156.083027 4.904686-2.737341-3.269791-5.476388-6.541288-8.215435-9.811079 2.191238-33.788409 4.380769-67.587056 6.572007-101.375465 6.423535-43.114822-13.632093-91.021696-4.928578-127.537206C394.440614 392.315182 397.179662 390.680287 399.917002 389.045391z" p-id="5185"></path></svg>