<?xml version="1.0" standalone="no"?><!DOCTYPE svg PUBLIC "-//W3C//DTD SVG 1.1//EN" "http://www.w3.org/Graphics/SVG/1.1/DTD/svg11.dtd"><svg t="1490942024790" class="icon" style="" viewBox="0 0 1024 1024" version="1.1" xmlns="http://www.w3.org/2000/svg" p-id="2676" xmlns:xlink="http://www.w3.org/1999/xlink" width="36" height="36"><defs><style type="text/css"></style></defs><path d="M63.151 470.785c-15.514 0-27.892 17.039-32.553 26.361s-17.116 117.819-17.116 117.819l34.079 1.533 20.243-117.819 66.701 1.533-21.776 116.363h38.815l24.252-145.781-112.645-0.005zM96.065 616.642c-3.204-7.94 14.272-98.526 14.272-98.526h-31.748s-3.204 52.429-14.341 88.983c-14.272 36.549-61.971 38.157-61.971 38.157l1.602 25.41c31.818 3.204 71.507-30.223 71.507-30.223 31.825 33.356 61.971 28.545 61.971 28.545l3.204-25.41c-27.019-4.66-41.36-19.002-44.495-26.937zM306.578 492.991v-19.37h-38.011v18.641h-76.021l-11.214 22.941s68.816 0 77.041 1.38c8.231 1.387 17.914 5.534 12.379 45.444-5.534 39.904-56.437 101.869-56.437 101.869h55.051c17.914-9.612 32.039-149.935 32.039-149.935h20.098v-20.972h-14.924zM215.708 527.583s-28.912 77.046-37.137 88.11c-8.231 10.923-13.766 17.844-19.3 21.991s-5.534 26.139-5.534 26.139-6.922 4.154 23.378-2.767c30.292-6.922 72.963-133.478 72.963-133.478h-34.37zM424.91 416.102s-31.679 44.059-37.137 49.516c-5.534 5.534-19.3 9.612-19.3 9.612l-4.147 28.906h24.758c-1.38 4.147-31.603 162.384-31.603 162.384h49.516l30.292-196.754 37.137-53.663h-49.516zM679.481 443.628l4.154-26.145h-48.206l-4.154 27.525h-152.695c-2.767 10.998-17.914 31.679-17.914 31.679h163.764l-12.379 53.67c45.438 104.561-88.033 154.151-88.033 154.151 66.049 0 104.566-33.059 118.333-64.662s26.139-145.926 26.139-145.926l15.152-1.38 5.529-28.906h-9.689zM1005.629 505.009c17.552-1.525 16.096-29.273 16.096-29.273h-201.559l-11.651 21.921h148.916c0 7.282-8.738 17.476-8.738 17.476h-45.293v-5.825h-52.575l-4.369 8.738s-26.284-4.369-36.478 7.282-21.921 113.892-21.921 113.892l37.941-1.456 7.282-29.203h39.461l-2.913 30.659h42.38l2.913-33.572h35.028c7.282 0 8.738-17.552 8.738-17.552l-37.941-1.456 1.456-13.107s23.378 0 33.572-1.456 8.738-21.921 8.738-21.921h-36.485l1.456-10.194h43.83c23.378 36.485-30.653 99.324-30.653 99.324h48.199c2.913-4.369 26.29-118.256 26.29-118.256h-13.107c-5.894-10.194 1.387-16.020 1.387-16.020zM874.195 586.711c-5.902 0-39.461-1.456-39.461-1.456s-2.913-11.727 2.913-13.107c5.825-1.456 40.847 1.456 40.847 1.456s1.602 13.107-4.3 13.107zM881.477 548.777h-37.941s-5.825-7.358 0-8.738h42.38c0.005 0 4.374 8.738-4.438 8.738zM792.425 653.919c-30.659-1.456-30.659-19.009-30.659-19.009l26.29-131.433h-54.031l-2.913 23.371h13.107s-14.64 96.411-17.552 112.431c-2.913 16.096-19.002 11.651-19.002 11.651v21.921h29.197c4.369 0 14.64-11.651 14.64-11.651 10.194 11.651 40.854 13.107 40.854 13.107h204.403l4.369-20.465c0.134 0.076-178.049 1.533-208.702 0.076z" fill="#EE8301" p-id="2677"></path><path d="M580.234 519.795c-29.349-24.321-75.952-16.533-104.060 17.476-28.038 33.863-27.019 81.119 2.406 105.44 29.419 24.321 75.946 16.533 104.053-17.401 28.038-34.015 27.019-81.196-2.4-105.517zM548.409 603.168h-52.138l7.427-52.138h49.657l-4.946 52.138zM736.931 466.998h60.438s-32.908-227.92-604.242-74.128c-0.069 0 491.596-104.42 543.803 74.128z" fill="#0561A0" p-id="2678"></path><path d="M20.334 451.783v-32.914h-12.309v-4.369h29.564v4.369h-12.379v32.914h-4.876zM46.986 451.783v-37.283h27.019v4.369h-22.067v11.429h20.681v4.369h-20.681v12.67h22.941v4.369l-27.892 0.076zM85.794 451.783v-37.283h5.098l19.591 29.273v-29.273h4.737v37.353h-5.098l-19.591-29.342v29.342h-4.737v-0.069zM127.668 451.783v-37.283h14.058c2.476 0 4.369 0.146 5.68 0.368 1.893 0.291 3.419 0.874 4.66 1.747s2.26 2.038 2.989 3.641c0.729 1.533 1.095 3.28 1.095 5.098 0 3.204-1.020 5.902-3.058 8.086-2.038 2.185-5.68 3.28-10.923 3.28h-9.542v15.146l-4.957-0.082zM132.62 432.268h9.689c3.204 0 5.465-0.582 6.775-1.747s2.038-2.844 2.038-5.028c0-1.525-0.368-2.913-1.165-4.009-0.861-1.207-2.163-2.051-3.666-2.301-0.342-0.175-1.875-0.321-4.129-0.321h-9.542v13.404zM158.612 451.783l14.349-37.359h5.319l15.292 37.359h-5.603l-4.369-11.291h-15.588l-4.154 11.291h-5.243zM169.396 436.492h12.67l-3.862-10.34c-3.389-8.231-5.682-17.767-6.411-27.738 2.798 24.844 1.225 29.143-0.937 33.076l-1.461 5.002zM208.35 451.783v-15.805l-14.418-21.477h6.047l7.351 11.283c1.38 2.109 2.622 4.223 3.787 6.332 1.095-1.963 2.476-4.147 4.078-6.554l7.213-10.998h5.749l-14.854 21.408v15.798h-4.951zM230.778 451.783v-5.173h5.243v5.243h-5.243v-0.069zM275.342 438.746l4.951 1.242c-1.020 4.078-2.913 7.136-5.603 9.321-2.622 2.115-5.971 3.135-9.834 3.135-4.009 0-7.282-0.798-9.834-2.476-2.553-1.602-4.445-4.009-5.756-7.060-1.243-2.916-1.964-6.308-1.964-9.868 0-0.064 0-0.126 0.001-0.19 0-3.853 0.729-7.271 2.26-10.185 1.456-2.913 3.565-5.098 6.332-6.554 2.521-1.423 5.534-2.263 8.745-2.263 0.1 0 0.201 0.001 0.301 0.002 3.701 0 6.83 0.949 9.381 2.843 2.553 1.893 4.293 4.585 5.312 8.010l-4.806 1.165c-0.874-2.691-2.115-4.66-3.787-5.894-1.678-1.242-3.717-1.893-6.193-1.893-2.844 0-5.243 0.652-7.213 2.038-2.254 1.625-3.852 4.038-4.393 6.828-0.49 1.106-0.85 3.436-0.85 5.911 0 3.135 0.437 5.894 1.38 8.301 0.95 2.406 2.331 4.147 4.3 5.319s4.078 1.747 6.332 1.747c2.767 0 5.098-0.798 6.991-2.4 1.981-1.619 3.292-3.949 3.943-7.078zM289.102 433.648c0-6.193 1.678-11.069 5.028-14.563s7.649-5.243 12.885-5.243c0.085-0.001 0.186-0.002 0.286-0.002 3.333 0 6.452 0.922 9.115 2.523 2.611 1.557 4.726 3.888 6.182 6.8s2.185 6.262 2.185 10.049-0.798 7.205-2.254 10.194c-1.533 2.913-3.717 5.243-6.554 6.775-2.767 1.525-5.825 2.254-9.029 2.254-3.495 0-6.623-0.874-9.39-2.553-2.844-1.671-4.882-4.001-6.338-6.914s-2.115-6.047-2.115-9.321zM294.198 433.725c0 4.515 1.242 8.010 3.641 10.631 2.406 2.622 5.465 3.856 9.106 3.856 3.717 0 6.775-1.311 9.175-3.932s3.565-6.332 3.565-11.145c0-3.058-0.507-5.68-1.525-7.934-1.211-2.717-3.335-4.845-5.977-6.029-0.404-0.403-2.678-1.108-5.117-1.108-0.042 0-0.084 0-0.127 0.001-3.488 0-6.471 1.165-9.023 3.641-2.476 2.406-3.717 6.407-3.717 12.018zM335.199 451.783v-37.283h7.427l8.814 26.43c0.804 2.476 1.38 4.3 1.747 5.534 0.437-1.38 1.095-3.349 1.969-5.971l8.954-25.993h6.629v37.353h-4.737v-31.312l-10.847 31.243h-4.445l-10.777-31.748v31.818h-4.737v-0.069z" fill="#949590" p-id="2679"></path></svg>