<?xml version="1.0" standalone="no"?><!DOCTYPE svg PUBLIC "-//W3C//DTD SVG 1.1//EN" "http://www.w3.org/Graphics/SVG/1.1/DTD/svg11.dtd"><svg t="1490942149564" class="icon" style="" viewBox="0 0 1024 1024" version="1.1" xmlns="http://www.w3.org/2000/svg" p-id="4852" xmlns:xlink="http://www.w3.org/1999/xlink" width="36" height="36"><defs><style type="text/css"></style></defs><path d="M793.718 686.93c-81.846-40.969-133.326-98.201-146.014-182.083-3.815-25.247 1.745-57.628 15.356-78.798 57.129-88.823 133.408-159.556 224.519-213.197 44.113-25.978 60.499-19.582 73.923 28.848 50.041 180.503 48.841 361.246-0.971 541.702-29.361 106.378-107.898 154.524-208.924 176.374-161.66 34.973-322.73 33.408-483.264-6.859-60.409-15.146-68.391-31.165-37.255-84.276 51.478-87.83 121.056-159.198 203.567-218.668 37.434-26.977 75.123-27.343 114.645-7.834 29.57 14.594 57.978 31.748 88.146 44.911 49.296 21.527 99.558 24.798 156.271-0.121z" p-id="4853"></path><path d="M277.089 334.55c62.145 27.542 104.879 70.203 112.849 133.386 4.816 38.187 2.409 84.022-14.833 116.963-49.555 94.667-129.167 162.396-224.796 209.551-49.504 24.413-61.021 17.726-74.64-34.537-43.815-168.127-42.586-336.465-2.638-505.147 25.024-105.677 89.518-170.35 195.479-195.223 170.118-39.941 339.732-39.97 509.076 3.682 47.87 12.337 53.842 20.468 34.654 66.133-43.54 103.605-117.335 180.145-219.265 227.658-33.38 15.564-68.407 13.917-102.927-3.653-32.701-16.644-66.626-31.501-101.244-43.6-38.27-13.362-74.93-7.78-111.716 24.787z" p-id="4854"></path></svg>