<?xml version="1.0" standalone="no"?><!DOCTYPE svg PUBLIC "-//W3C//DTD SVG 1.1//EN" "http://www.w3.org/Graphics/SVG/1.1/DTD/svg11.dtd"><svg t="1490942141051" class="icon" style="" viewBox="0 0 1024 1024" version="1.1" xmlns="http://www.w3.org/2000/svg" p-id="4744" xmlns:xlink="http://www.w3.org/1999/xlink" width="36" height="36"><defs><style type="text/css"></style></defs><path d="M512.027118 966.79923c-251.163343 0-454.830953-203.617467-454.830953-454.795137 0-251.232928 203.667609-454.803323 454.830953-454.803323 251.190973 0 454.774671 203.570395 454.77467 454.803323 0 251.176646-203.583698 454.795137-454.77467 454.795137z m0-851.075579c-218.796168 0-396.245649 177.429015-396.24565 396.280442 0 218.768539 177.449481 396.251789 396.24565 396.25179 218.879056 0 396.286582-177.48325 396.286581-396.25179 0-218.85245-177.407526-396.280442-396.286581-396.280442z m15.266705 588.719313h175.519526V620.679211H527.293823V422.945755h175.519526v-68.488861H527.293823v-72.436776h247.346411v205.471699H595.470575v59.993372h179.169659v221.502813H527.293823v-64.545038zM249.454934 547.486212h179.128726v-59.993372H249.454934V282.020118h247.387343v72.436776H321.197908v68.488861h175.645392v197.733456H321.197908v83.762729h175.645392v64.546062H249.454934V547.486212z" fill="#BF1920" p-id="4745"></path></svg>