<?xml version="1.0" standalone="no"?><!DOCTYPE svg PUBLIC "-//W3C//DTD SVG 1.1//EN" "http://www.w3.org/Graphics/SVG/1.1/DTD/svg11.dtd"><svg t="1490942130620" class="icon" style="" viewBox="0 0 1024 1024" version="1.1" xmlns="http://www.w3.org/2000/svg" p-id="4527" xmlns:xlink="http://www.w3.org/1999/xlink" width="36" height="36"><defs><style type="text/css"></style></defs><path d="M0.347412 288.311405h228.927923s43.234687 0 51.382251 12.256138h-42.401715v13.011339l65.191768 0.805341s10.57587 7.335059 10.575869 13.060458l-75.754334 0.811481v12.220323h83.929527s9.742898 4.885264 7.369852 15.476483H67.996139v13.879102l265.583774-0.831948s1.596358 10.583033 1.596357 13.865799H67.996139v13.81668l268.054035-0.805342s1.596358 8.160867-2.471284 13.851473l-265.569448 2.455935v13.047154l261.559111-1.644453s0 10.610662-6.593162 13.865799L68.009442 439.084317v12.192693l246.832711-1.616824s-0.818645 13.025665-9.79918 15.46932l-237.046834 0.805342v13.088086l217.491452-1.644453s-4.816702 16.266475-38.251185 14.635326l-40.736797-0.77669v12.220323l66.010413 0.818645s27.620058 0 31.81152 11.395538l-97.822956 2.463098v12.214182h114.908076s10.54824 8.119935 10.548241 13.025665L68.009442 544.984229v14.685467l269.63709-2.422166s10.617825 7.286963 10.617825 14.58723L68.009442 573.479213v12.256138h284.362466s3.220345 4.060479 1.596358 11.437494L68.009442 599.600127v12.214183h285.958824s2.415003 7.328919 0 12.990872L68.009442 626.484428v13.03999h283.501865s2.456958 8.113795-4.079921 14.636349H68.009442v13.019525l273.731338-0.812505s-0.860601 13.074783-6.551207 13.858635h-96.920399v13.865799l83.929527-0.818644s-5.704932 13.039991-11.395538 14.678304l-72.533989 0.818645v13.844309l48.855707-0.811482s-7.328919 15.509229-71.687715 13.038968L0.360715 734.036979V288.311405H0.347412z" fill="#E5BD56" p-id="4528"></path><path d="M586.129836 509.931898l1.651616 221.675752 61.902862 0.763386-0.777713-107.573017c-3.289929-50.506301 16.350386-57.800427 16.350387-57.800427 43.941791-27.710109 61.09752 15.489786 61.09752 15.489786l0.763386 149.884682h61.083194l-1.623987-166.200276c-12.977569-77.391624-79.057567-64.364937-79.057567-64.364937-26.024723-3.282766-60.307527 31.783891-60.307528 31.78389l0.861624-23.657816H586.129836v-0.001023zM810.227754 419.507446l1.583054 312.100204h61.09752l-0.777713-49.736774 30.133298-40.742937 49.728588 91.243097 71.66111-2.448771-77.350692-141.771911 64.303538-88.794325h-70.827115l-69.327972 90.430592-3.15076-169.440064-57.072856-0.839111zM564.908512 706.98588l-2.442632-146.636709c-3.247974-79.050404-130.342604-52.977585-130.342604-52.977585-68.370157 11.43647-61.083194 71.701019-61.083193 71.701019l61.083193-0.818645c1.651616-35.84437 55.392588-23.623024 55.392588-23.623024 36.71111 30.131251-6.481621 37.474496-6.481621 37.474497-19.555381 0-83.10986 17.918092-83.10986 17.918091-39.098483 14.678304-36.641525 56.206116-36.641525 56.206116 0 62.720484 56.975643 66.822918 56.975643 66.822918 52.977585 12.227486 85.580121-21.965268 85.58012-21.965267l4.094249 22.797215 65.136509-1.589194-8.160867-25.309432z m-60.736293-52.852742s-6.329149 20.464077-25.191752 29.382191c0 0-41.082674 21.971407-54.129828-8.16803 0 0-4.358261-19.138896 14.379499-26.473955 0 0 48.813752-17.544585 65.441455-23.214725 0 0 1.74883 12.783141-0.499374 28.474519z" fill="#641E7C" p-id="4529"></path></svg>