<?xml version="1.0" standalone="no"?><!DOCTYPE svg PUBLIC "-//W3C//DTD SVG 1.1//EN" "http://www.w3.org/Graphics/SVG/1.1/DTD/svg11.dtd"><svg t="1490941992448" class="icon" style="" viewBox="0 0 1024 1024" version="1.1" xmlns="http://www.w3.org/2000/svg" p-id="2236" xmlns:xlink="http://www.w3.org/1999/xlink" width="36" height="36"><defs><style type="text/css"></style></defs><path d="M229.658 154.778c1.367-0.855 7.311-8.295 18.565-9.61 0 0-3.364 10.347-15.15 13.5 0 0 10.521 0.79 13.783 9.207 0 0-8.223 7.08-18.187-4.527 0 0 6.523 11.715-5.365 18.463 0 0-7.609-4.224 0.384-16.921 0 0-10.921 12.062-18.396 9.308 0 0-0.405-6.682 15.892-12.98 0 0-12.575 0.687-15.324-7.08 0 0 6.118-7.21 18.186 1.996 0 0-6.958-12.416 4.173-21.55 0 0.01 7.49 6.866 1.439 20.194z m685.332 275.82c-0.118-2.633-1.111-9.258 1.874-16.815-0.348 0.24-15.15-1.034-13.036 6.185 1.321 4.567 7.624 3.758 11.162 10.63z m-379.28-120.68c1.189-1.438 2.156-2.682 2.663-3.947-0.89 1.034-2.33 1.72-3.988 2.279l1.326 1.669z m297.698-71.106c2.35-7.839 8.013-12.119 11.49-10.117 5.15 2.965-0.963 9.134-8.351 12.17 6.953-2.56 14.822-1.997 14.13 3.036-0.629 4.685-7.147 6.278-14.97 1.142 6.277 5.366 6.953 12.35 2.452 13.942-4.582 1.597-7.7-3.21-6.727-12.467-2.007 8.801-7.947 12.288-10.87 10.87-4.629-2.176-3.83-7.665 7.834-13.154-8.925 3.313-14.864 1.142-14.234-2.631 0.737-4.224 8.171-4.982 15.012-1.367-4.05-2.755-6.958-11.326-1.188-13.205 3.604-1.193 7.834 2.862 5.422 11.781z m153.021 152.684c8.07-8.244 18.642-9.61 22.252-4.752 5.391 7.138-6.922 10.752-19.041 9.436 11.381 1.598 21.898 7.665 17.94 13.45-3.712 5.366-13.819 2.914-21.59-8.872 5.488 10.977 2.231 20.075-5.034 18.974-7.434-1.12-8.975-9.185-1.945-20.008-8.12 9.487-18.57 9.784-21.837 6.067-5.136-5.95-0.738-12.17 18.923-10.978-14.52-2.053-21.499-8.8-18.288-12.979 3.589-4.859 14.397-0.68 21.95 8.525-4.05-6.175-3.042-18.744 6.169-17.254 5.831 0.89 9.374 8.903 0.501 18.39z m-45.44-70.774c2.965-10.189 10.348-15.606 14.751-13.025 6.63 3.824-1.188 11.888-10.68 15.764 8.98-3.369 18.98-2.632 18.17 3.891-0.742 6.068-9.19 8.116-19.276 1.367 8.064 6.979 8.98 15.893 3.154 17.956-5.888 2.176-10-4.014-8.699-16.005-2.56 11.433-10.27 15.887-13.988 14.065-6.021-2.862-4.982-9.892 10.102-16.922-11.54 4.224-19.2 1.475-18.34-3.435 0.973-5.489 10.46-6.4 19.369-1.823-5.279-3.543-9.052-14.47-1.659-17.03 4.685-1.5 10.225 3.656 7.096 15.197z m-208.64-81.28c11.418-12.017 25.606-14.398 29.999-7.665 6.522 10.066-10.164 15.662-26.174 14.295 14.874 1.823 28.406 9.995 22.646 18.463-5.443 7.839-18.652 4.803-27.955-11.766 6.277 15.483 1.193 28.636-8.397 27.392-9.79-1.26-11.09-12.8-0.748-28.585-11.71 14.065-25.62 14.853-29.593 9.595-6.283-8.171 0.169-17.326 26.173-16.47-19.092-2.28-27.796-11.536-23.147-17.783 5.258-7.03 19.2-1.54 28.41 11.208-4.802-8.627-2.298-26.69 9.76-24.868 7.659 1.075 11.601 12.35-0.974 26.184zM543.58 106.102c2.125-8.172 9.052-12.396 13.778-10.117 6.968 3.328-0.22 9.595-9.36 12.451 8.68-2.4 18.853-1.454 18.643 3.825-0.302 4.895-8.571 6.293-19.272 0.492 8.678 5.944 10.47 13.327 4.792 14.802-5.842 1.54-10.521-3.63-10.22-13.4-1.55 9.222-8.929 12.611-12.907 10.998-6.19-2.488-5.842-8.258 8.658-13.501-11.202 3.087-19.128 0.543-18.729-3.405 0.512-4.49 9.923-4.91 19.323-0.855-5.545-3.036-10.347-12.119-3.092-13.942 4.53-1.095 10.588 3.359 8.386 12.652zM387.302 177.7c-1.141-7.434-19.763-21.325-35.896-22.293 16.01-8.504 23.5-5.033 23.5-5.033 10.978 2.402 15.325 20.92 21.146 19.098 3.088-1.597 8.346-5.996 8.346-5.996l-1.669 9.662c0.456 5.944 20.24-1.541 27.213 6.523 0 0 8.448 6.804 9.139 26.127-8.801-16.061-32.88-25.672-40.75-19.778-3.646 2.805-1.495 11.888-1.495 11.888-4.859-5.314-12.12-9.206-18.975-10.926 0.026-0.01 10.245-4.06 9.441-9.272z m84.506 76.488c5.14-15.1 17.659-23.322 25.267-19.426 11.136 5.714-2.176 17.608-18.288 23.43 15.273-4.91 32.353-3.825 30.935 5.841-1.316 9.032-15.606 12.12-32.753 2.053 13.711 10.4 15.258 23.783 5.366 26.865-10.066 3.087-17.024-6.067-14.746-23.885-4.454 16.922-17.551 23.552-23.951 20.92-10.066-4.223-8.402-14.745 17.198-25.272-19.605 6.298-32.528 2.176-31.16-5.084 1.597-8.223 17.832-9.605 32.931-2.806-8.852-5.135-15.324-21.499-2.754-25.267 7.94-2.35 17.326 5.417 11.96 22.64l-0.005-0.01z m-310.804 21.258c1.648-8.351 6.927-12.698 10.455-10.399 5.258 3.492-0.175 9.892-7.138 12.8 6.626-2.452 14.341-1.49 14.116 3.896-0.174 5.033-6.4 6.523-14.571 0.558 6.625 6.068 7.89 13.61 3.594 15.1-4.352 1.597-7.895-3.718-7.665-13.66-1.26 9.435-6.753 12.85-9.784 11.258-4.751-2.632-4.398-8.448 6.574-13.834-8.525 3.138-14.47 0.578-14.188-3.492 0.349-4.526 7.542-5.033 14.572-0.855-4.173-3.087-7.823-12.396-2.335-14.295 3.507-1.121 8.013 3.435 6.37 12.923z m-86.257 20.126c0.527-9.256 6.067-14.694 10.803-12.748 6.927 2.928 1.439 10.593-6.451 14.745 7.608-3.614 17.029-3.768 17.71 1.997 0.63 5.443-6.682 8.003-17.536 2.734 9.027 5.591 11.837 13.435 6.958 15.713-5.033 2.35-10.168-2.805-11.607-13.501 0.108 10.225-6.067 14.802-9.892 13.553-6.123-2.069-6.804-8.397 5.545-15.78-9.718 4.628-17.377 2.734-17.659-1.598-0.404-5.033 8.223-6.523 17.5-3.21-5.662-2.683-11.607-12.119-5.314-14.868 3.999-1.782 10.224 2.442 9.943 12.963z m89.395 33.27c5.545-13.501 17.254-19.323 23.777-14.745 9.61 6.927-3.087 16.235-17.889 19.425 13.942-2.524 29.143 0.855 27.27 9.713-1.824 8.222-14.803 9.134-29.374-2.56 11.484 11.535 12.016 24.289 2.913 25.774-9.206 1.597-14.746-7.89-11.556-24.356-5.084 15.257-17.198 19.655-22.692 16.343-8.75-5.381-6.523-14.976 17.024-21.274-17.935 3.21-29.214-2.452-27.422-9.026 1.945-7.435 16.466-6.523 29.563 1.945-7.614-6.123-12.294-22.292-0.738-24.08 7.178-1.115 15.017 7.527 9.124 22.841zM59.474 418.591c-7.368 0.107-23.22 16.921-26.409 32.512-6.124-16.87-3.21-22.41-3.21-22.41 2.683-9.14 24.007-13.256 23.096-19.2-1.193-3.262-4.751-8.976-4.751-8.976l9.205 2.965c5.873 0.276 1.245-20.01 10.066-25.723 0 0 7.819-7.312 26.742-5.366-16.855 6.4-29.67 27.899-24.29 37.227 2.28 3.948 10.799 3.016 10.799 3.016-5.873 3.963-10.624 10.593-13.256 16.942 0.02-0.01-2.785-11.059-7.992-10.987zM614.2 211.26c-3.768-2.734-31.319 9.263-31.319 9.263 4.962-7.593 7.363-15.837 7.363-15.837 5.596-4.751 18.534-1.367 22.584-2.524-0.68-1.597 0.461-7.311 0.461-7.311l5.489 4.577c3.717-0.404 9.031-12.119 17.152-12.119 0 0 11.1 6.175 19.67 7.998-15.498 1.72-30.627 6.574-29.839 13.731 0.63 3.492 5.714 7.542 5.714 7.542l-15.764 5.494c-0.02-0.005 1.73-8.474-1.51-10.814z m261.35 16.625c21.76 24.638 33.163 13.942 45.205 29.845 1.193-10.522-8.975-23.322-11.023-26.763 24.79 15.555 27.474 18.873 20.808 32.932-4.752 9.836 14.07-1.823 23.562 10.276-7.721-1.367-9.672 2.632-18.857 6.86-18.366 7.435-25.744-4.172-36.02 5.136l-3.496-8.448s16.455-2.806 17.561-7.767c1.065-4.91-34.718-2.053-37.74-42.07z m-512.67 23.409c15.324 0.86 22.062-6.175 18.115-12.75-4.122-7.034-14.746-1.878-21.202 6.683 6.471-9.437 8.069-22.185-1.44-22.185-6.42 0.03-9.573 9.922-4.648 21.985h-0.005c-5.842-13.502-15.432-15.555-18.867-11.274a5.898 5.898 0 0 0-1.275 3.077c-3.257 1.044-6.682 3.799-8.95 7.163 4.05-6.508 4.05-14.73-3.261-13.942-4.977 0.47-6.452 6.963-1.557 14.167-5.765-8.044-13.312-8.622-15.534-5.591-3.543 4.802 6.748 9.436 12.923 9.083-9.56 1.387-15.662 6.174-12.524 9.835 2.734 3.139 10.117 1.316 15.432-6.292-5.878 10.875-1.649 15.38 4.577 14.413 3.876-0.681 6.293-6.697 0.226-14.47 2.575 2.617 5.12 4.516 7.454 5.74-1.423 1.956-1.766 4.127-0.62 6.257 2.965 5.365 12.693 3.768 20.972-7.26-9.595 15.938-5.084 23.603 3.088 23.024 5.135-0.456 9.385-9.436 3.087-22.41 8.013 12.8 16.927 16.691 21.202 11.028 4.132-5.478-3.758-14.003-17.193-16.281z m-21.99 0.235c-2.54-2.099-7.358-3.758-13.358-3.988 4.72-0.272 8.268-1.224 10.613-2.514 3.349 2.739 7.89 4.726 11.5 4.966a34.079 34.079 0 0 0-8.755 1.536z" fill="#00A5D7" p-id="2237"></path><path d="M544.18 219.085c2.288 6.052-11.331 14.34-11.331 14.34l25.16 11.485s-0.979-10.522 2.529-15.324c7.772-9.262 31.482 2.176 51.952 17.73a376.914 376.914 0 0 0-13.45-31.744c-9.533-9.205-30.131-1.474-35.041-5.191l-0.978-11.556s-8.223 5.381-9.354 8.013c-6.237-3.21-17.337-21.832-29.778-22.64 0 0-12.852 6.86-28.022 10.224 0 0.02 42.752 10.142 48.312 24.663z m182.46-46.981c8.5-4.224 16.569-2.755 17.603 1.72 1.552 6.682-8.494 6.4-16.86 2.575 7.68 3.825 13.327 10.926 8.576 14.341-4.398 3.139-10.926-1.085-12.692-11.765 0.343 9.487-4.967 15.55-9.836 13.025-5.033-2.56-3.543-9.032 5.135-15.432-9.031 5.187-16.62 2.857-17.781-0.701-1.782-5.596 3.491-9.262 17.254-3.646-9.79-5.033-12.636-11.714-8.93-14.115 4.174-2.806 10.594 2.928 13.052 11.555-0.937-5.545 3.947-14.75 10.107-11.489 3.911 2.15 3.85 8.904-5.627 13.932z m-533.155 87.803c16.24 41.733 53.55 26.987 54.026 32.701 0.456 5.591-16.235 13.942-16.235 13.942l6.4 7.89c8.069-13.256 19.727-3.313 36.879-17.255 8.468-7.434 9.262-12.344 17.956-13.378-14.116-9.892-30.352 8.699-28.529-3.436 2.575-17.152-1.367-19.778-33.04-28.354 3.42 3.036 18.463 13.435 20.573 24.919-18.084-13.036-26.767 2.17-58.03-17.03z" fill="#00A5D7" p-id="2238"></path><path d="M512.087 885.11c0 25.902-11.837 53.202-40.873 53.202-32.404 0-43.735-27.32-43.735-53.202 0-25.923 11.325-53.228 43.735-53.228 29.051 0.01 40.873 27.31 40.873 53.228z m-99.845 62.356h14.013v-23.675h0.512c7.03 16.932 24.459 27.341 44.473 27.341 38.016 0 56.13-30.76 56.13-66.022 0-35.282-18.114-66.038-56.13-66.038-18.642 0-36.757 9.492-43.28 27.34h-0.455v-71.577h-15.273v172.641l0.01-0.01z m218.296-48.368c0 20.019-16.41 38.19-43.274 38.19-14.295 0-28.073-8.92-28.073-23.67 0-29.143 22.81-31.263 48.701-35.84 8.443-1.49 20.388-5.653 21.607-7.608h0.512l0.527 28.928z m-78.587-57.723s20.69-8.576 45.66-8.576c17.9 0 30.992 5.38 30.992 17.377 0 8.806-9.134 12.119-38.58 16.415-27.263 3.947-47.16 15.498-47.16 44.083 0 25.144 19.958 40.474 42.937 40.474 23.951 0 36.644-10.532 45.506-25.38l-0.056 21.703h14.577l-0.057-88.253c0-33.372-23.951-40.12-45.906-40.12-29.102 0-47.682 9.031-47.682 9.031l-0.23 13.246z m-413.25 106.091h27.494v-73.738c0-18.412 11.889-32.86 30.25-32.86 16.24 0 23.956 8.443 24.411 28.068v78.55h27.602v-85.81c0-28.068-17.203-42.589-44.242-42.589-16.466 0-29.092 5.591-37.509 15.15h-0.512v-59.412h-27.494v172.641z m138.163-103.234h67.686l-69.16 83.906v19.328h110.033v-21.724h-73l69.34-83.912v-19.369H276.859z m393.585 103.234H685.7v-72.755c0.456-24.412 14.976-42.798 39.148-42.798 24.637 0 31.682 16.246 31.682 37.719v77.834h15.212V867.22c0-29.721-10.594-48.128-45.67-48.128-17.67 0-34.371 10.169-39.89 25.16h-0.461v-21.499h-15.253v124.713h-0.02z m124.84 0h15.15v-47.344l24.69-20.552 49.33 67.896h19.17L846.72 868.92l53.238-46.192h-20.296L810.44 883.22V774.83h-15.15z" fill="#333333" p-id="2239"></path><path d="M565.78 324.895c-7.562 2.928-15.708 0.63-19.22-4.05 5.386-2.56 6.19-6.753 6.881-10.174 2.489 8.33 6.498 12.17 12.34 14.224z m21.202-20.747c-6.922 0.635-15.493-0.68-22.86-3.205 5.652 4.91 14.06 13.481 11.023 19.2 3.543-3.773 9.487-11.648 11.837-15.995z" fill="#FFFFFF" p-id="2240"></path><path d="M290.191 426.235c-5.79-1.613-7.838-3.313-11.084-5.842 0.737 2.806 4.224 8.294 1.715 11.663-3.205 2.632-6.754-0.911-8.52-2.508-1.085-1.106-2.401-4.521-3.543-7.89-0.737 0.978-11.259 8.171-15.432 2.734-0.225-5.264 8.397-6.861 11.152-8.802-3.891 1.142-12.365-3.896-13.783-5.14-2.176-2.176 0.348-3.103 1.597-3.615 5.381-2.104 11.151-0.174 15.96 3.16-0.912-2.735-6.227-7.543-1.598-11.664l2.805-1.142c3.544 0.123 4.629 1.715 5.663 2.755 2.401 2.278 2.965 5.77 2.524 8.279 0.789-1.823 7.21-4.383 7.21-4.383 5.437-2.632 9.61 2.176 5.263 5.489l-6.16 4.1c14.403 5.387 11.438 11.715 6.231 12.806z m677.1 43.781c-10.63-13.609-13.502-18.744-13.502-18.744-9.313-4.578-19.03 2.626-27.55 3.087-1.603-1.93-4.05-2.734-7.071-2.611l-5.381-7.086s-1.193 4.787-5.54 9.139c-14.141 4.014-30.71 8.346-29.599-5.207 0.681-8.853 5.023-10.906 15.662-9.436 3.282 0.455 11.428 0.809 16.942-3.298 1.47-1.141 3.19-1.54 4.28-2.4 1.777 3.645 4.22 7.188 9.667 4.91 5.77-4.122 5.253-9.729 4.752-19.426 2.299 6.625 17.106 19.2 21.442 12.785 2.617-3.892-3.092-15.555-15.554-19.426 0 0 20.7-1.244 19.374-10.629-1.434-10.291-20.654-2.278-22.984 0.226 3.036-7.21 3.891-21.955-3.036-22.744-8.637-0.983-9.21 13.784-7.68 21.5-5.263-12.452-17.884-20.465-22.451-14.623-4.352 5.662 5.867 17.935 13.762 20.464-19.046 2.176-22.128 16.01-39.506 14.874 9.257-6.067 12.468-15.893 7.43-22.062-4.45-5.315-16.973-2.755-22.293 12.119-1.142-9.994-6.292-14.188-10.414-11.326-5.263 3.543-1.664 11.889-4.055 13.502 0.809-0.225 1.602-0.225 2.35-0.225 11.715 0.353 4.531 15.083-7.199 25.937 11.382-9.835 26.41-15.503 28.698-7.137 2.11 7.818-9.032 15.821-27.392 14.239 15.432 3.087 21.606 13.378 14.239 19.656-7.496 6.4-16.8 1.669-21.269-13.712 2.299 15.432-6.507 25.851-13.03 26.128-10.169 0.384-12.519-8.75 5.709-27.04-14.572 12.576-27.26 14.188-28.637 7.773-1.54-7.26 11.843-14.592 27.32-14.874-9.533-0.809-20.97-11.555-11.473-19.425 5.96-4.91 16.809-2.176 18.473 13.763a33.698 33.698 0 0 1 3.036-16.973c6.733-10.63 6.451-25.042 4.91-28.867-4.577-11.259-17.377-10.224-19.16-9.436-15.825 7.03-14.699 18.186-17.658 3.543-2.299-11.955 10.291-10.066 17.9-11.78l2.232 7.433c15.892-11.484 24.479 5.842 51.272-1.945 13.547-4.455 16.87-9.836 27.427-6.733-11.54-18.412-39.562-4.803-31.442-17.956 11.382-18.693 8.192-23.777-24.417-49.28 2.463 5.207 14.828 24.689 11.54 39.158-14.57-24.08-32.06-10.696-58.92-48.487-1.72 56.536 48.926 57.8 46.633 64.605-1.434 4.403-11.612 6.574-18.74 7.485-0.061-1.265-0.512-2.857-1.372-4.91-0.932-2.068-5.77-16.364-22.338-20.695-11.152-2.862-22.462 2.401-28.524 10.066-11.888 14.976-45.056 10.977-36.93-3.036 2.974-5.084 11.264-1.193 15.544-4.86-1.981-0.91-1.464-5.206-7.603-6.123 3.533-0.512 7.08-2.805 7.603-4.275-3.092 0.456-5.591-1.085-5.94-2.401 1.368-0.456 5.33-1.367 5.208-3.768-0.113-6.523-14.403-4.352-10.05-7.665 6.174-4.629 0.619-10.573-3.892-9.257-8.52 2.626-13.399 8.576-21.442 7.08 0 0 14.694-8.345 21.263-22.64-11.48-1.244-8.29-9.083-3.031-10.066-14.26 1.388-22.933 24.812-31.683 25.442 6.882-14.464 7.89-24.459 7.26-32.686-8.509 3.824-14.807 18.795-16.066 25.548-1.121 6.523-5.484 6.626-6.687 0.789-2.81-15.38-9.728-20.572-12.288-22.41-2.729 2.964-5.258 11.555-4.168 19.676-5.258-10.624-8.35-14.239-12.098-16.005-13.322 14.238-12.411 30.3-12.411 30.3 4.572-5.95 10.752-8.576 14.94-6.523 8.627 4.454-1.613 13.604-14.013 18.058 11.766-3.768 24.862-2.964 23.767 4.455-1.04 6.978-12.022 9.38-25.221 1.597 10.542 8.013 11.78 18.289 4.167 20.695-7.818 2.401-13.148-4.695-11.36-18.412-3.442 13.03-13.507 18.187-18.464 16.118-7.715-3.307-6.4-11.325 13.256-19.425-15.032 4.859-25.042 1.67-23.951-3.896 1.188-6.4 13.711-7.435 25.318-2.176-6.722-3.927-11.679-16.22-2.468-19.374h-0.005c-7.716-11.715-17.905-21.202-31.508-19.15-3.948 0.738-6.805 3.196-9.262 6.452-1.245-5.263-11.597-8.853-28.964-4.859 6.45-7.419 12.738-25.252 5.079-27.546-7.01-2.124-14.971 8.976-16.522 23.322-3.948-15.432-15.028-23.834-21.018-20.342-6.17 3.543-2.299 18.924 8.699 26.061-13.281-1.265-22.19-1.669-27.11 5.489-1.419 2.002-3.14 8.048 2.524 11.433-6.4-1.72-11.32 1.26-12.918 5.033-2.279-0.456-9.488-0.912-10.117 9.385-0.579 11.31-7.609 7.419-5.996 3.717 4.101-9.436 3.543-23.04 2.965-25.093-11.485 5.033-18.289 19.425-16.87 34.703 0.455 4.982-4 4.628-3.595 0.579 1.874-18.007-3.825-27.27-10.752-35.948-0.348 2.278-1.439 3.594-2.002 5.366a9.012 9.012 0 0 0-7.209-5.945c4.122 16.569-3.036 21.202 4.122 37.894-14.818-4.173-8.346-19.953-20.414-27.392-0.737 8.576-10.521 10.629-15.483 7.086 4.455-0.405 9.083-4.455 9.943-6.523-1.894-1.95-6.804-4.296-12.344-5.033 4.275-1.034 8.115-3.666 11.259-8.172-7.665 0.512-8.07-5.714-2.806-9.661-3.087-0.579-7.485 0.635-8.632 1.541 0.635-1.439 1.244-2.857 0.911-5.545 0 0-2.452 0.348-4.628 3.21 1.085-1.474 1.54-5.437 0.86-7.137-2.524 0.911-5.084 4.352-6.625 7.895 0.348-2.53 0.174-6.123-0.855-7.26-6.175 2.857-8.12 9.538-9.032 14.571-0.737-4.787-2.965-6.86-2.965-6.86-1.367 0.983-3.087 4.172-4.05 9.103-0.404-1.367-1.366-5.381-2.4-5.842-2.965 8.397-3.313 15.765 2.631 24.97 1.997 3.088 5.893 4.86 6.625 8.115 2.755 13.435-21.724 17.327-21.724 17.327 7.383-7.542 12.344-16.466 11.556-25.498-5.663 1.142-11.151 6.175-13.783 9.892 1.771-4.982 4.751-13.435 2.964-19.605-6.804 3.313-10.465 9.488-11.612 13.256-1.193-5.714-0.737-6.292-3.999-11.382-5.38-8.171-25.774-9.098-31.262 9.713-1.598-2.56-9.662-5.54-10.522-5.315-0.68 6.124 4.055 15.555 5.95 18.345-7.086-10-14.802-12.523-17.608-12.923 0.701 6.175 5.663 15.028 11.556 20.588-13.942-12.416-24.694-1.894-25.851 4.506-1.034-15.084-11.326-21.044-11.326-21.044-13.204 16.466-7.367 31.391-2.124 36.7-3.646 14.52-19.323 5.382-12.852-2.053 3.088-4.172-2.508-14.694-16.343-3.998 16.927-14.24-10.854-25.851-9.835-3.088-5.033-21.939-30.935-4.1-9.713 7.204-22.236-7.997-25.323 18.75-0.302 12.017-2.913 2.631-8.171 11.837-1.597 14.925 5.785 2.682 10.117-5.382 10.87-11.152 1.879 7.434 8.98 11.26 16.855 7.941 4.75-2.002 7.94 1.67 8.064 4.173 0.107 2.458-3.206 7.434-14.342 3.036 4.752 16.067-11.484 19.676-18.642 9.79-3.89-5.315-24.919-9.943-24.919-9.943 2.914 10.117-15.375 32.02-23.552 22.533-3.543-4.122 3.436-11.326 3.436-11.326 9.083-11.837-23.373-16.235-24.356-2.857-2.575-1.193-10.189-1.771-14.29-0.122 5.765-3.016 11.945-16.344 5.765-19.252-6.958-3.312-14.013 6.574-15.554 14.802-0.405-11.556-6.928-22.533-14.188-18.345-5.488 3.139-1.879 15.606 4.86 20.849-9.263-4.275-19.78-5.591-21.377 1.597-1.823 8.013 12.575 11.1 20.516 8.244-8.07 8.448-9.61 19.358-2.965 21.882 7.035 2.683 13.154-3.47 15.084-13.993-0.051 3.892 0.855 7.42 3.036 10.225-3.615 4.787-5.714 10.675-13.378 14.572-12.416 6.348-22.585 4.91-22.129 13.102 0.276 6.328 13.834 5.437 23.951-4.526 14.014-13.589 23.22 8.8 9.104 17.602-3.436 2.176-10.63-0.809-15.324-2.053-17.152-4.577-18.136 11.274-0.405 20.588L517.53 757.878l369.57-261.97c5.213-3.37 8.351-5.944 12.908-9.836l22.989 2.612s-6.63-8.116-3.902-13.154c3.963-7.214 17.506-15.687 48.195-5.514z m-624.195-96.655a9.34 9.34 0 0 1-0.63 3.435l9.386 2.509c1.715 0.456 2.754-0.963 4.802-0.681 1.772 0.225 3.036 1.715 2.401 3.205-0.63 1.495-2.4 2.069-4.1 1.367-2.228-0.86-1.823-2.56-3.436-2.964l-9.436-2.56c-0.983 1.945-2.58 3.594-4.629 4.751l5.95 6.753c1.034 1.193 2.928 0.558 4.398 1.772 1.264 0.962 1.315 2.913-0.349 3.717-1.525 0.932-3.404 0.599-4.31-0.768-1.142-1.823 0.455-2.965-0.58-4.173l-5.943-6.804a14.703 14.703 0 0 1-6.805 1.597l-0.174 8.525c0 1.439 1.946 1.874 2.278 3.615 0.302 1.367-0.962 2.862-2.908 2.862-1.879-0.108-3.138-1.25-2.928-2.862 0.348-1.946 2.452-2.176 2.452-3.615v-8.632a14.821 14.821 0 0 1-6.625-2.054l-6.175 7.03c-1.034 1.193 0.282 2.458-0.63 4.055-0.809 1.26-2.928 1.823-4.454 0.855-1.439-0.983-1.598-2.575-0.348-3.614 1.771-1.475 3.543-0.686 4.577-1.823l6.226-7.086a11.007 11.007 0 0 1-3.948-4.803l-10.066 2.734c-1.669 0.456-1.54 2.176-3.368 2.929-1.598 0.68-3.646 0.107-4.224-1.439-0.512-1.49 0.512-2.857 2.344-3.133 2.402-0.353 3.313 1.193 4.91 0.788l10.118-2.683a8.63 8.63 0 0 1-0.405-2.754c0-1.034 0.225-2.053 0.579-3.088l-10.066-2.682c-1.67-0.456-2.755 0.962-4.859 0.737-1.72-0.225-3.036-1.715-2.35-3.205 0.63-1.495 2.452-2.069 4.121-1.439 2.228 0.86 1.772 2.56 3.436 3.036l9.994 2.734a12.107 12.107 0 0 1 4.173-4.751l-6.052-6.927c-1.034-1.193-2.985-0.579-4.398-1.823-1.265-0.978-1.265-2.806 0.348-3.717 1.541-0.855 3.42-0.512 4.275 0.86 1.142 1.823-0.384 2.964 0.63 4.101l6.052 6.979c2.002-1.142 4.352-1.772 6.876-1.823v-8.397c0-1.495-1.997-1.879-2.345-3.615-0.225-1.438 1.035-2.913 2.965-2.862 1.874 0.108 3.138 1.244 2.913 2.806-0.384 2.053-2.452 2.227-2.452 3.594v8.448c2.575 0.051 4.981 0.686 6.978 1.823l5.842-6.625c1.034-1.142-0.302-2.453 0.63-3.999 0.809-1.316 2.928-1.874 4.403-0.911 1.49 1.034 1.67 2.631 0.404 3.666-1.771 1.474-3.614 0.68-4.577 1.822l-5.842 6.626c1.946 1.259 3.436 2.964 4.296 5.032l9.308-2.524c1.72-0.455 1.541-2.176 3.37-2.964 1.54-0.635 3.645-0.108 4.223 1.49 0.456 1.474-0.512 2.862-2.345 3.087-2.457 0.348-3.313-1.142-4.91-0.737l-9.385 2.509c0.266 0.865 0.394 1.776 0.394 2.688z m99.953-4.608c-7.434-2.069-10.117-4.296-14.239-7.486 0.912 3.615 5.438 10.701 2.125 15.027-4.055 3.42-8.75-1.141-10.962-3.312-1.382-1.388-3.036-5.786-4.52-10.066-1.035 1.26-14.572 10.521-19.953 3.42-0.354-6.753 10.798-8.801 14.34-11.325-4.981 1.49-15.958-4.91-17.781-6.733-2.806-2.632 0.456-3.891 2.125-4.578 6.912-2.631 14.34-0.225 20.572 4.05-1.265-3.491-8.049-9.661-2.053-15.027l3.543-1.387c4.628 0.05 5.944 2.176 7.367 3.543 3.088 2.857 3.769 7.383 3.21 10.624 1.086-2.402 9.258-5.591 9.258-5.591 7.03-3.543 12.467 2.683 6.804 6.963l-7.89 5.417c18.57 6.8 14.787 15.073 8.054 16.46z m82.473 0.102c-1.372 0.809-2.862 0.456-3.59-0.911l0.011-0.005c-0.963-1.716 0.343-2.98-0.502-4.102l-4.925-6.804a11.476 11.476 0 0 1-5.714 1.541l-0.108 8.576c0 1.475 1.649 1.88 1.88 3.594a2.406 2.406 0 0 1-2.458 2.857 2.437 2.437 0 0 1-2.401-2.805c0.348-2.054 2.068-2.212 2.068-3.651v-8.627a10.716 10.716 0 0 1-5.489-2.125l-5.14 7.086c-0.911 1.142 0.225 2.509-0.512 4.05-0.753 1.316-2.453 1.894-3.717 0.86-1.26-0.983-1.388-2.524-0.348-3.666 1.418-1.474 2.964-0.63 3.824-1.771l5.207-7.138a10.106 10.106 0 0 1-3.261-4.802l-8.397 2.754c-1.439 0.456-1.265 2.125-2.806 2.914-1.316 0.686-3.087 0.158-3.543-1.439a2.452 2.452 0 0 1 1.946-3.139c2.048-0.353 2.785 1.193 4.101 0.789l8.402-2.734a13.254 13.254 0 0 1-0.348-2.683c0-1.142 0.179-2.176 0.455-3.087l-8.294-2.755c-1.418-0.456-2.335 0.983-4.05 0.681-1.418-0.174-2.56-1.649-1.997-3.133 0.579-1.496 1.997-2.125 3.436-1.44 1.823 0.917 1.541 2.632 2.862 3.037l8.294 2.667c0.738-1.838 1.946-3.435 3.487-4.695l-5.084-6.963c-0.86-1.244-2.401-0.558-3.666-1.817-1.019-1.035-1.019-2.862 0.302-3.717 1.316-0.86 2.857-0.507 3.594 0.855 0.968 1.843-0.348 2.985 0.512 4.121l5.105 6.979a10.944 10.944 0 0 1 5.647-1.823v-8.397c0-1.561-1.648-1.894-1.945-3.615-0.154-1.49 0.875-2.964 2.473-2.856 1.597 0 2.631 1.264 2.4 2.754-0.28 2.048-2.001 2.278-2.001 3.646v8.448c2.176 0.107 4.116 0.737 5.786 1.873l4.858-6.681c0.86-1.142-0.235-2.524 0.512-3.999 0.681-1.316 2.453-1.945 3.723-0.911 1.239 0.962 1.372 2.611 0.281 3.645-1.418 1.475-2.908 0.686-3.768 1.823l-4.854 6.625c1.598 1.265 2.867 3.103 3.533 5.105l7.777-2.58c1.367-0.456 1.26-2.125 2.806-2.914 1.321-0.63 3.093-0.102 3.492 1.439a2.432 2.432 0 0 1-1.94 3.19c-1.987 0.353-2.74-1.245-4.04-0.789l-7.788 2.53c0.226 0.91 0.343 1.766 0.343 2.733a11.033 11.033 0 0 1-0.573 3.436l7.833 2.509c1.388 0.455 2.279-0.963 4-0.681 1.412 0.246 2.503 1.735 2.001 3.205-0.578 1.495-2.053 2.068-3.42 1.439-1.874-0.86-1.51-2.632-2.883-3.088l-7.88-2.524a10.145 10.145 0 0 1-3.819 4.751l4.91 6.805c0.912 1.208 2.453 0.527 3.728 1.771 0.978 1.045 0.978 2.868-0.328 3.779z m50.939 19.082c1.54 3.999 8.632 7.767 8.632 7.767l-17.843 10.348c0.01 0.015 0.471-11.592-4.326-12.734-17.035-3.947-35.784 18.694-35.784 18.694 2.242-17.152 3.21-18.008 5.663-21.899 4.792-7.664 26.23-3.435 26.342-7.557 0.174-5.033-1.188-8.909-1.188-8.909l7.721 4.224c7.311 1.265 7.43-15.554 17.25-17.377 9.21-1.823 18.119 1.265 26.48 3.768-20.936 3.037-35.63 15.079-32.947 23.675z m186.557 21.34c-19.271 9.186-28.001-1.315-38.461 8.853l-4.393-7.895s17.551-4.455 18.345-9.365c0.86-5.033-37.545 1.598-43.792-37.104 25.319 21.775 36.783 10.117 50.94 24.289 0.557-10.296-11.326-21.724-13.907-24.919 28.027 12.575 31.089 15.555 24.93 29.952-4.357 10.066 15.037-3.313 26.117 7.542-8.346-0.507-10.169 3.65-19.779 8.647z m-581.447 29.548c-5.259 2.401 2.176 14.94 2.688 16.184 0 0-8.172-0.384-13.205 0.512 0 0 5.663-14.397-1.597-18.186-15.1-6.963-31.95 8.75-40.3 4.014 10.798-3.036 15.432-16.45 25.093-15.554 3.769 0.348 13.154 6.963 15.78 6.348 0 0 0-7.715 0.911-8.873 2.525 1.49 4.926 7.332 6.068 8.366 1.141 0.963 9.61-3.281 21.094-1.945 7.311 2.12 16.45 14.571 17.1 21.499-15.22-13.737-30.827-13.737-33.632-12.365z m12.753-49.224c-10.926-13.66-2.631-18.693 1.946-14.679 4.05 3.492 5.135 6.4 6.805 10.752 0.983-3.205 0.809-10.573 5.263-12.344 4.628-0.737 6.052 4.802 6.733 7.434 0.455 1.715 0 5.033-0.789 9.032 1.265-0.456 15.483-0.686 16.292 7.086-2.806 5.258-2.35-1.475-15.959 2.068 6.523 0.277 12.452 11.556 6.805 14.746-5.663 3.19-11.664-3.282-13.84-11.505 1.034 3.492 2.458 11.157-4.52 12.452-3.77 0.686-7.942-2.913-8.05-6.753-0.107-3.702 0.513-7.26 2.458-9.539-10.521 2.053-19.61-10.398-11.085-9.943l7.941 1.193z" fill="#00A5D7" p-id="2241"></path></svg>