<?xml version="1.0" standalone="no"?><!DOCTYPE svg PUBLIC "-//W3C//DTD SVG 1.1//EN" "http://www.w3.org/Graphics/SVG/1.1/DTD/svg11.dtd"><svg t="1490942098054" class="icon" style="" viewBox="0 0 1025 1024" version="1.1" xmlns="http://www.w3.org/2000/svg" p-id="3761" xmlns:xlink="http://www.w3.org/1999/xlink" width="36.03515625" height="36"><defs><style type="text/css"></style></defs><path d="M464.586829 2.282472L488.449037 0h47.309423l21.579737 2.282472v313.943668l-2.074975 2.074974-2.074975 4.357447h-2.489969l-2.074975 2.074975-6.432422 2.074975h-60.174265l-6.432421-2.074975-2.282473-2.074975H468.944276v-4.357447l-2.074975-2.074974-2.074975-8.507396V2.282472h-0.207497z m217.457345 507.538805v152.718135l-2.074974 4.14995-2.282473 2.282472-2.074974 4.357447h-4.14995l-4.564944 2.074974-8.714893 2.074975h-90.261399v240.904559l19.297265-4.149949 19.297264-2.074975 17.22229-6.432421 17.429787-4.357447 8.507396-2.074975 8.507397-4.357447 17.222289-6.432421 17.22229-8.714894 15.147315-8.507396 17.22229-8.714893 15.147315-8.507397 12.864843-10.789868 15.147315-10.789868 28.012158-23.654711 12.864843-12.864843 10.582371-13.072341 12.864843-14.939817 10.789868-13.072341 10.789868-14.939817 8.507397-15.147316 8.507396-17.222289 8.714893-15.147315 8.507397-17.22229 6.432421-17.22229 10.789868-34.444579 6.432422-17.22229 2.074974-19.297265 4.357447-17.222289 2.074975-19.297265 2.074975-38.802026-2.074975-30.087133-1.867477-14.73232v-15.147315l-6.432422-30.087133-8.507396-30.087133-4.357447-12.864843-4.357447-13.07234-10.789868-27.804661-14.939817-25.937183-13.072341-25.729686-17.22229-21.579736-19.297264-23.654712-19.297265-21.372239-21.579736-19.504762L757.365755 182.805268 733.503546 165.582979 707.77386 150.643161 682.044174 137.570821v352.745694l-2.074974 4.149949-2.282473 2.48997-2.074974 4.149949-4.14995 2.282472h-4.564944l-8.714893 2.074975h-126.780953l-2.074974 2.074974-2.282473 2.282473v-148.360689l2.074975-4.357447 2.074975-4.14995 4.357447-2.074974h58.09929l8.714894-2.282472 6.432421-2.282472 4.357447-2.282473 4.357447-6.432421V10.789868l42.951976 12.864843 21.579736 6.432422 19.297265 6.432421 21.579736 8.507396 19.297265 10.997366 19.297264 8.507396 17.22229 10.789869 19.297264 12.864843 17.22229 10.58237 17.22229 13.072341 14.939818 14.939817 17.222289 15.147315 15.147315 14.939818 28.012158 30.29463 12.864843 17.014793 13.072341 17.429787 10.582371 19.297264 10.789868 17.22229 21.579737 38.594529 8.507396 19.297264 6.639919 21.787234 12.864843 40.877001 6.432421 21.579737 4.357447 21.579737 2.282472 21.372239 4.149949 23.654711V537.833435l-2.074974 25.937183-2.282472 25.522188-4.357447 25.937184-6.432422 23.654711-6.432421 25.729686-8.507396 23.654711-8.714894 21.787234-10.789868 23.447214-10.789869 21.579737-12.864843 21.579736-12.864843 21.372239-14.939817 19.504762-15.147315 19.297265-15.147315 19.297264-17.22229 17.22229-17.22229 17.22229-19.297264 15.147315-19.297265 14.939817-19.504762 15.147315-21.372239 12.864843-21.579736 13.072341-21.579737 10.582371-23.654711 10.789868-21.372239 8.507396-25.937184 8.507396-23.654711 6.639919-23.654711 6.432422-25.937184 4.149949-25.729685 2.282472-25.729686 2.074975-25.729686 2.282472-25.937184-2.074975-25.729686-2.074974-25.937183-2.282472-25.729686-4.357447-25.729686-6.432422-23.654711-6.639919-23.862209-8.507396-23.654711-8.507396-21.372239-10.789868-21.579737-10.582371-21.579736-13.072341-21.372239-12.864843-19.504762-15.147315-19.297265-14.939817-19.504762-15.147315-17.014792-17.22229-17.22229-17.22229-17.222289-19.297264-15.147316-19.297265-12.864842-19.504762-12.864843-21.372239-12.864843-21.579736-10.789869-21.579737-10.789868-23.447214-8.507396-21.787234-8.714894-23.654711-6.432421-25.729686-6.432422-23.654711-4.357447-25.937184-4.357446-25.729685L0 537.625937v-49.384397l2.074975-21.372239 2.074974-23.654711 4.357447-21.372239 4.357447-21.579737 4.357447-21.579737 13.07234-40.877001 8.507396-21.579736 8.507396-19.504762 8.714894-19.297265 10.789868-19.297264 10.789869-17.22229 12.864843-19.297264 13.07234-17.22229L116.198582 187.162715 129.270922 172.0154 144.21074 156.868085 159.358055 141.928267 174.297872 126.780952l34.44458-25.729686 17.22229-12.864842 17.222289-12.864843 19.297265-10.789869 19.297264-8.507396 19.504762-10.997366 19.297265-8.507396 19.297264-6.432421 21.579737-6.432422 21.579736-6.432421 21.372239-6.432422v327.016008l2.074975 4.357447 2.074975 2.074975L414.994934 346.52077l6.639919 2.074975 6.432422 2.074974h58.09929l4.357447 2.074975 4.357447 4.149949v152.718136l-4.357447-4.149949h-126.98845l-8.714893-2.074975h-4.14995l-2.282472-2.282472-4.357447-4.149949-2.074974-2.282473v-4.149949l-2.074975-6.432421V137.570821l-25.729686 13.07234L290.496454 165.582979l-23.654711 17.222289-23.654712 17.22229-21.579736 19.504762-19.297265 21.372239-17.429787 23.654712-17.22229 23.654711-14.939817 23.654711-12.864843 25.937183-6.432422 12.864843-4.149949 14.939818-10.997366 28.012158-6.432421 28.012158-6.432422 30.087133-2.074974 15.147315v15.147315l-2.074975 30.087133v19.297264l2.074975 19.297265 2.074974 17.222289 2.074975 19.297265 4.357447 19.297264 4.357447 17.22229 6.224924 17.22229 2.282472 8.507396 4.357447 8.714894 6.432421 17.222289 6.432421 17.22229 17.22229 32.162107 21.579737 28.012159 10.789868 15.147315 10.789868 14.939817 12.864843 13.072341 12.864843 12.864843 25.729686 23.654711 15.147315 10.789868 14.939818 10.789868 30.087133 17.22229 17.429787 8.507396 14.939818 8.714894 17.222289 6.432421 17.22229 6.432422 19.297265 4.357447 17.222289 6.432421 17.22229 2.074975 19.297264 4.357447V677.686727h-90.261398l-8.714893-2.074974-2.074975-2.282472h-4.357447l-4.149949-4.357447-2.074975-2.282472v-4.14995l-2.074974-6.432421v-146.285714l2.074974 2.282472 2.074975 2.074974 6.432421 4.357447 6.432422 2.074975 6.432421 2.074975h122.631003l4.357447 2.074974 4.149949 4.357447V675.404255h32.369605v-141.928267l2.074975-4.357447 2.074975-4.357447 4.357447-2.074974h122.631003l6.432421-2.074975 6.432422-2.074975 6.432421-4.357447 4.564944-4.357446z" fill="#049175" p-id="3762"></path></svg>