<?xml version="1.0" standalone="no"?><!DOCTYPE svg PUBLIC "-//W3C//DTD SVG 1.1//EN" "http://www.w3.org/Graphics/SVG/1.1/DTD/svg11.dtd"><svg t="1490942005541" class="icon" style="" viewBox="0 0 1370 1024" version="1.1" xmlns="http://www.w3.org/2000/svg" p-id="2348" xmlns:xlink="http://www.w3.org/1999/xlink" width="48.1640625" height="36"><defs><style type="text/css"></style></defs><path d="M1232.896 819.830154c0 54.508308-35.288615 98.934154-79.084308 98.934154H217.718154c-43.795692 0-79.084308-44.110769-79.084308-98.934154V282.308923c0-54.508308 35.288615-98.619077 79.084308-98.619077h936.093538c43.795692 0 79.084308 44.110769 79.084308 98.619077v537.521231z" fill="#FFFFFF" p-id="2349"></path><path d="M890.092308 502.862769h-75.303385v-93.577846h69.316923c1.890462 0 3.465846-1.890462 3.465846-4.411077v-17.959384c0-2.520615-1.575385-4.411077-3.465846-4.411077h-168.566154c-1.890462 0-3.465846 1.890462-3.465846 4.411077v17.959384c0 2.520615 1.575385 4.411077 3.465846 4.411077h69.316923v93.577846h-75.303384c-1.890462 0-3.465846 1.890462-3.465846 4.411077v19.219692c0 2.205538 1.575385 4.411077 3.465846 4.411077h75.303384V567.138462c0 2.520615 1.575385 4.411077 3.465847 4.411076h23.000615c1.890462 0 3.465846-1.890462 3.465846-4.411076v-36.233847h75.303385c1.890462 0 3.465846-1.890462 3.465846-4.411077V507.273846c0-2.520615-1.575385-4.411077-3.465846-4.411077z m-140.209231-14.808615h23.315692c1.890462 0 2.835692-1.890462 1.890462-3.780923l-23.000616-56.083693c-0.945231-2.205538-3.150769-4.096-5.986461-4.096h-23.315692c-1.890462 0-2.835692 1.890462-1.890462 4.096l23.000615 56.083693c1.260308 1.890462 3.465846 3.780923 5.986462 3.780923z m290.500923-6.931692c0 7.561846-0.945231 13.548308-8.822154 18.589538-6.301538 3.780923-16.384 9.767385-25.836308 15.123692-9.137231-5.356308-19.534769-11.342769-25.52123-15.123692-7.876923-5.041231-8.822154-11.027692-8.822154-18.589538v-8.192h69.001846v8.192z m57.028923-35.288616h-29.617231v-15.753846c0-2.520615-1.575385-4.411077-3.465846-4.411077h-20.164923c-1.890462 0-3.465846 1.890462-3.465846 4.411077v15.753846h-69.001846v-15.753846c0-2.520615-1.575385-4.411077-3.465846-4.411077h-20.164923c-1.890462 0-3.465846 1.890462-3.465847 4.411077v15.753846h-29.61723c-1.890462 0-3.465846 1.890462-3.465847 4.411077v18.589539c0 2.205538 1.575385 4.411077 3.465847 4.411076h29.61723v11.657847c0 13.548308 5.041231 26.151385 18.274462 34.343384 5.041231 3.150769 11.342769 6.931692 17.959385 11.027693-11.657846 5.986462-22.370462 8.822154-33.083077 8.822153h-28.041847c-1.890462 0-3.465846 1.890462-3.465846 4.411077v18.274462c0 2.520615 1.575385 4.411077 3.465846 4.411077h27.72677c11.027692 0 24.576-2.835692 35.918769-8.192 4.726154-2.205538 13.548308-6.931692 23.315692-12.603077 10.082462 5.671385 18.904615 10.397538 23.630769 12.603077 11.342769 5.356308 24.891077 8.192 35.91877 8.192h27.411692c1.890462 0 3.465846-2.205538 3.465846-4.411077v-18.274462c0-2.520615-1.575385-4.411077-3.465846-4.411077h-28.041846c-11.027692 0-21.425231-2.835692-33.398154-8.822153 6.616615-4.096 12.918154-7.876923 17.959385-11.027693 13.233231-8.192 18.274462-20.795077 18.274461-34.343384v-11.657847h29.617231c1.890462 0 3.465846-1.890462 3.465846-4.411076v-18.589539c-0.945231-2.520615-2.205538-4.411077-4.096-4.411077zM657.880615 538.781538h-135.483077v-135.483076h135.483077v135.483076z m6.616616-160.059076h-149.031385c-11.027692 0-20.164923 11.027692-20.164923 25.206153v136.428308c0 13.863385 9.137231 25.206154 20.164923 25.206154h149.031385c11.027692 0 20.164923-11.342769 20.164923-25.206154v-136.428308c0-14.178462-9.137231-25.206154-20.164923-25.206153z m188.731077 45.056c-2.835692 0-5.041231 1.890462-5.986462 4.096l-23.000615 56.083692c-0.945231 2.205538 0.315077 3.780923 2.205538 3.780923h23.315693c2.835692 0 5.041231-1.890462 5.671384-3.780923l23.000616-56.083692c0.945231-2.205538-0.315077-4.096-1.890462-4.096h-23.315692z m62.38523 3.150769h16.068924c1.890462 0 3.465846-1.890462 3.465846-4.411077v-12.603077h141.469538v12.603077c0 2.205538 1.575385 4.411077 3.465846 4.411077h16.068923c1.890462 0 3.465846-1.890462 3.465847-4.411077v-14.493539c0-12.288-7.876923-22.055385-17.644308-22.055384H1020.849231v-10.397539c0-2.520615-1.575385-4.411077-3.465846-4.411077h-23.000616c-1.890462 0-3.465846 1.890462-3.465846 4.411077v10.397539h-60.809846c-9.767385 0-17.644308 9.767385-17.644308 22.055384v14.493539c-0.315077 2.205538 1.260308 4.411077 3.150769 4.411077z m-476.08123 76.563692h-52.30277v-76.563692h52.30277v76.563692z m-83.495385 0H303.734154v-76.563692H356.036923v76.563692z m91.687385-104.605538h-60.49477v-22.370462c0-2.520615-1.575385-4.411077-3.465846-4.411077H359.187692c-1.890462 0-3.465846 1.890462-3.465846 4.411077v22.370462H295.227077c-11.027692 0-20.164923 11.342769-20.164923 25.206153v82.235077c0 13.863385 9.137231 25.206154 20.164923 25.206154H356.036923v35.288616c0 2.520615 1.575385 4.411077 3.465846 4.411077h24.576c1.890462 0 3.465846-1.890462 3.465846-4.411077v-35.288616h60.49477c11.027692 0 20.164923-11.342769 20.164923-25.206154v-82.235077c-0.315077-13.863385-9.452308-25.206154-20.48-25.206153z m196.292923 91.372307h-20.48v9.767385h-20.164923v-22.370462h34.973538V456.861538h-34.973538v-15.123692h40.644923v-23.000615h-107.756308v23.000615h40.644923v15.123692h-34.658461v21.110154h34.658461v22.370462h-40.644923v22.685538h107.756308v-32.768z" fill="#D94B20" p-id="2350"></path><path d="M1196.977231 648.743385c0 29.617231-19.219692 53.878154-43.165539 53.878153H217.718154c-23.945846 0-43.165538-24.260923-43.165539-53.878153V282.624c0-29.617231 19.534769-53.878154 43.165539-53.878154h936.093538c23.945846 0 43.165538 24.260923 43.165539 53.878154v366.119385zM1153.811692 201.964308H217.718154c-35.918769 0-64.905846 36.233846-64.905846 80.659692v537.521231c0 44.425846 28.987077 80.659692 64.905846 80.659692h936.093538c35.603692 0 64.905846-36.233846 64.905846-80.659692V282.624c0-44.740923-28.987077-80.659692-64.905846-80.659692z" fill="#D94B20" p-id="2351"></path><path d="M949.326769 833.378462c0 2.205538 1.575385 4.096 3.150769 4.096s3.150769-1.890462 3.15077-4.096v-21.425231c0-1.890462 1.260308-3.150769 2.520615-3.150769h40.96c1.260308 0 2.520615 1.260308 2.520615 3.150769v19.219692c0 2.205538 1.575385 4.096 3.15077 4.096 1.890462 0 3.150769-1.890462 3.150769-4.096v-23.000615c0-3.780923-2.520615-6.931692-5.671385-6.931693h-47.891692c-3.150769 0-5.356308 3.150769-5.356308 6.931693v25.206154h0.315077z m63.960616 10.397538c-10.397538-7.246769-19.534769-11.972923-27.096616-14.178462-1.890462-0.630154-3.465846 0.315077-4.096 2.205539-0.630154 2.520615 0.315077 3.780923 2.205539 4.726154 9.452308 3.150769 18.274462 8.192 26.781538 14.178461l2.520616 0.630154 1.890461-2.205538v-3.15077l-2.205538-2.205538z m1.575384-49.782154c-11.657846-3.465846-19.849846-10.082462-24.576-19.849846 0.315077-0.945231 0.630154-2.835692 0.945231-4.726154h14.493538c2.205538 0 1.575385 2.835692-2.835692 8.822154-1.260308 2.205538-0.945231 4.096 0.315077 5.671385 1.575385 1.260308 3.150769 0.945231 4.411077-0.945231 2.835692-4.411077 5.041231-8.822154 6.301538-13.548308 0.945231-4.726154-0.315077-7.246769-5.04123-7.246769h-31.82277l1.260308-3.150769 0.315077-3.15077-1.575385-2.205538c-1.890462-0.945231-3.150769 0-4.096 2.520615-1.890462 5.356308-5.041231 10.712615-9.13723 15.753847-1.575385 1.890462-1.575385 3.780923-0.630154 5.671384 1.575385 1.575385 3.150769 1.575385 4.726154-0.315077 1.575385-1.575385 3.465846-4.096 5.671384-7.561846h10.712616c-1.575385 11.342769-8.822154 18.589538-21.740308 23.000615-1.890462 0.945231-2.835692 2.520615-2.520615 4.726154 0.945231 2.205538 2.205538 3.150769 4.411077 2.520616 11.342769-3.150769 18.904615-8.507077 22.685538-17.959385 5.356308 10.082462 14.178462 17.014154 26.151385 19.849846l2.835692-0.315077 1.575385-2.205538c0.315077-3.150769-0.630154-4.726154-2.835693-5.356308z m-69.316923 5.671385c6.931692-3.780923 12.918154-7.876923 17.959385-12.288l1.575384-2.835693-0.630153-3.150769-2.205539-1.260307-2.835692 1.260307c-5.041231 4.411077-10.397538 8.192-16.699077 11.657846-2.205538 1.260308-2.835692 2.835692-1.890462 5.041231 0.630154 2.205538 2.520615 2.520615 4.726154 1.575385z m-1.260308-33.713231l0.630154 0.315077c4.726154 1.575385 9.137231 3.465846 13.233231 5.671385 1.890462 0.945231 3.465846 0.315077 4.096-2.205539v-2.835692l-1.890461-2.205539c-4.096-1.890462-8.822154-4.096-14.493539-6.301538-1.890462-0.315077-3.150769 0.315077-3.780923 2.835692-0.630154 2.520615 0.315077 3.780923 2.205538 4.726154z m34.973539 44.110769c-2.205538 0-3.465846 1.575385-3.780923 4.411077-0.945231 17.959385-11.027692 27.411692-30.562462 27.726769-2.205538 0.315077-3.150769 1.890462-3.150769 4.096 0.315077 2.205538 1.890462 3.465846 4.096 3.15077 22.370462-0.630154 34.658462-11.972923 36.233846-34.343385 0-2.835692-0.945231-4.411077-2.835692-5.041231z m-92.632615-51.672615h18.904615c3.780923 0 5.671385 2.205538 5.671385 6.616615v15.753846c0 1.575385 0 2.520615 0.315076 2.835693l2.205539 0.630154h7.246769c2.205538 0 3.150769 1.575385 3.150769 3.465846 0 2.520615-1.260308 3.780923-3.150769 3.780923h-8.822154c-2.835692 0-4.726154-0.630154-5.671384-2.205539-0.945231-1.260308-1.260308-3.780923-1.260308-8.192v-13.863384c0-1.575385-0.630154-2.205538-1.575385-2.205539H888.516923c-1.575385 0-2.205538 0.630154-2.205538 2.520616v5.986461c0 9.137231-3.465846 16.068923-10.712616 21.425231-2.205538 1.575385-3.780923 1.575385-5.041231-0.630154-1.260308-2.205538-0.630154-4.411077 1.260308-5.671385 5.986462-4.096 8.507077-9.767385 8.507077-16.699076v-7.24677c0.315077-4.096 2.205538-6.301538 6.301539-6.301538z m24.260923 37.809231c2.835692 0 4.411077 1.260308 5.356307 3.150769 0.945231 2.205538 0.630154 5.041231-0.630154 8.507077-3.780923 9.767385-8.507077 17.644308-14.178461 23.630769 6.616615 4.726154 13.863385 7.876923 21.425231 9.137231 2.205538 0.630154 3.150769 2.205538 3.150769 4.726154-0.315077 2.520615-1.575385 3.465846-3.780923 3.150769-11.027692-2.520615-19.849846-6.301538-26.466462-11.972923-6.616615 5.041231-14.493538 8.822154-23.315692 11.657846-2.205538 0.630154-3.780923-0.315077-4.726154-2.520615-0.630154-2.520615 0.315077-4.411077 2.205539-5.041231 8.192-2.520615 14.808615-5.671385 20.164923-9.452308-4.411077-5.041231-8.192-10.712615-12.288-18.274461-1.260308-2.520615-1.260308-4.726154 0.630154-6.301539l2.835692-0.630154 2.205538 2.520616c3.780923 7.561846 7.876923 13.233231 12.918154 18.274461 6.301538-5.986462 10.712615-12.288 13.233231-19.534769 0.630154-1.890462 0.315077-2.835692-0.945231-3.150769h-29.932308c-1.575385 0-2.520615-1.260308-2.520615-3.780923 0-2.520615 0.945231-3.780923 2.520615-3.780923h32.137847v-0.315077z m-46.631385-37.494154v18.274461h7.246769c1.575385 0 2.205538 1.260308 2.205539 3.465846 0 2.205538-0.945231 3.465846-2.205539 3.465847h-7.246769v20.48c1.260308-0.945231 3.150769-2.205538 5.041231-3.780923l0.315077-0.315077c1.890462-1.260308 2.835692-1.260308 4.096 0.94523l0.630154 3.465847-1.575385 2.520615c-3.780923 2.835692-6.616615 5.041231-8.192 5.986461v27.72677c0 7.876923-3.780923 10.082462-11.657846 6.931692-2.205538-0.945231-2.835692-2.835692-2.835693-5.356308l1.575385-2.520615h2.835692c3.150769 1.575385 4.411077 1.575385 4.411077-0.630154v-22.370461l-0.315077 0.315076c-3.150769 2.205538-5.356308 3.465846-6.301538 3.780924-1.575385 0.630154-2.520615-0.315077-3.465846-2.205539-0.630154-2.205538-0.315077-3.780923 1.260307-4.726154 0.945231-0.630154 2.520615-1.575385 4.411077-2.835692 2.205538-1.260308 3.465846-2.205538 4.411077-2.835692v-24.260923h-7.561846c-1.575385 0-2.205538-1.260308-2.205538-3.465847 0-2.520615 0.945231-3.465846 2.205538-3.465846h7.561846v-18.274461c0-1.890462 0.945231-3.150769 2.835693-3.15077 1.575385 0 2.520615 0.945231 2.520615 2.835693z m-247.335385 13.233231h13.863385c1.890462 0 2.835692-1.260308 2.835692-3.780924 0-2.520615-0.945231-3.780923-2.835692-3.780923h-11.972923c0.630154-3.150769 0.945231-4.726154 0.945231-5.04123 0.315077-2.520615-0.315077-4.096-2.520616-4.726154-2.205538-0.315077-3.465846 0.630154-4.096 3.150769-2.205538 12.288-5.671385 22.370462-11.027692 31.192615-1.260308 2.520615-1.260308 4.726154 0.315077 6.301539l2.835692 0.630154 2.835693-2.205539 1.890461-2.835692h3.465846v13.548308h-8.192c-1.575385 0-2.520615 1.260308-2.520615 3.780923 0 2.205538 0.945231 3.780923 2.520615 3.780923h8.192v31.192615c0 3.780923 0.630154 6.301538 2.205539 7.561846 1.575385 0.945231 3.150769 0.945231 5.356307-0.94523 3.780923-2.835692 7.561846-6.931692 11.34277-12.603077 1.260308-1.890462 1.260308-3.780923-0.315077-5.671385l-2.520616-0.945231-2.205538 1.575385c-2.205538 3.465846-4.096 5.671385-5.671385 7.561846l-1.575384 0.630154-0.630154-1.575385v-26.151384h10.712615c1.575385-0.315077 2.520615-1.575385 2.520616-4.096s-0.945231-3.465846-2.520616-3.465847h-10.712615v-13.548307h9.137231c1.890462 0 2.835692-1.575385 2.835692-3.780923 0-2.520615-1.260308-3.780923-2.835692-3.780923h-15.753847l0.630154-1.575385c1.575385-5.041231 2.835692-8.192 3.465846-10.397538z m24.576 26.781538v-12.288h26.466462v9.137231c0 1.575385-0.945231 2.835692-2.520615 2.835692h-23.945847v0.315077z m0-28.987077c0-1.575385 0.945231-2.835692 2.520616-2.835692h21.425231c1.260308 0 2.520615 1.260308 2.520615 2.835692v9.452308h-26.466462v-9.452308z m38.439385 73.097846l-1.890462-2.520615c-5.671385-3.465846-10.082462-7.561846-13.548307-11.972923l1.575384-1.575385c3.465846-3.780923 6.301538-7.561846 8.507077-10.712615 1.260308-1.890462 0.945231-3.780923-0.315077-5.671385l-2.205538-0.945231-2.205539 1.575385c-3.150769 4.411077-5.986462 8.192-8.822153 11.027692-2.835692-5.041231-4.726154-10.397538-5.671385-16.068923h13.863385c2.835692 0 5.356308-2.835692 5.356307-6.616615V765.636923c0-3.780923-2.520615-6.616615-5.356307-6.616615h-28.041847c-2.835692 0-5.356308 2.835692-5.356307 6.616615v76.563692c0.315077 7.561846 2.835692 10.082462 8.192 7.561847 3.150769-2.205538 6.931692-5.986462 11.342769-11.657847 1.575385-2.205538 1.575385-4.411077 0-6.616615l-2.520615-0.945231-2.520616 1.890462c-2.205538 3.465846-4.726154 6.301538-6.931692 8.192l-0.945231 0.315077-0.315077-1.260308v-33.713231h6.931693c3.465846 18.589538 12.288 32.137846 26.151384 40.644923l2.835692 0.945231 2.205539-1.890461-0.315077-2.835693z m45.371077-82.235077h39.069538c2.205538 0 3.780923 1.575385 3.780923 4.096s-1.575385 4.096-3.780923 4.096h-39.069538c-2.205538-0.315077-3.150769-1.260308-3.150769-4.096-0.315077-2.520615 0.945231-4.096 3.150769-4.096z m-3.150769 23.315693h46.316307c1.890462 0 3.150769 1.260308 3.15077 4.096s-1.260308 3.780923-3.15077 4.096H759.335385v42.220307c0 7.876923-1.890462 12.603077-5.671385 14.178462-4.096 1.890462-11.342769 0.945231-21.740308-2.520616l-2.205538-1.890461v-3.780923l1.575384-2.520616c0.945231-0.630154 1.575385-0.315077 2.835693 0 7.561846 2.520615 12.288 3.465846 14.808615 2.835693 2.520615-0.630154 3.780923-2.835692 3.780923-7.561846v-41.275077h-30.247384c-2.205538-0.315077-3.150769-1.260308-3.15077-4.096-0.630154-2.520615 0.630154-3.780923 2.835693-3.780923z m-14.178462-25.206154l1.890462-2.520616h2.520615l1.575385 2.835693-0.315077 3.465846c-3.780923 8.822154-7.876923 16.384-12.288 22.685538l-2.205539 1.575385-2.520615-0.945231c-1.575385-1.890462-1.575385-3.780923-0.315077-5.671384 4.726154-6.931692 8.507077-14.178462 11.657846-21.425231z m-7.561846 54.508307l-2.520615 1.575385-2.205539-1.260308-0.945231-3.150769 0.945231-3.150769c5.041231-6.931692 9.137231-14.808615 12.603077-23.630769l1.890462-2.835693h2.520615l1.890462 2.520616-0.315077 3.465846c-0.315077 1.575385-1.260308 3.780923-2.835693 6.616615l-0.94523 1.890462v50.727384c0 2.835692-0.945231 4.411077-3.15077 4.411077s-3.150769-1.890462-3.150769-4.411077v-39.069538l-3.780923 6.301538z m-226.855385-11.657846c-0.630154-2.205538-1.260308-3.780923-1.890461-5.356307l-0.945231-2.835693-0.315077-2.520615v-2.205539l3.150769-18.904615V767.842462c0.315077-2.835692 0-5.041231-0.315077-5.986462-0.630154-1.260308-2.205538-1.890462-4.411076-1.890462h-11.657847c-4.096 0-5.356308 2.520615-5.356307 6.301539v80.659692c0 2.205538 1.260308 3.780923 3.150769 3.780923s3.150769-1.575385 3.150769-3.780923v-76.248615c0-2.205538 0.630154-3.150769 2.205539-3.150769h4.726153c1.260308 0 1.890462 0.945231 1.890462 2.520615l-2.835692 17.014154-0.315077 3.465846c0 1.890462 0 3.780923 0.945231 5.671385l0.94523 2.835692 2.520616 7.561846c0.630154 2.835692 0.945231 5.986462 0.94523 7.876923 0 2.520615-0.630154 3.780923-0.94523 4.726154-0.630154 0.630154-0.945231 1.260308-2.520616 1.260308l-2.520615-0.630154c-1.575385-0.315077-3.150769 0.630154-3.780923 2.835692-0.315077 1.890462 0.630154 4.096 2.205538 4.411077 1.575385 0.315077 2.835692 0.945231 4.096 0.945231h0.315077c2.835692 0 5.671385-1.260308 7.246769-3.780923 1.890462-2.520615 2.520615-5.986462 2.520616-9.767385 0.315077-4.096-0.945231-8.822154-2.205539-12.918154z m6.301539-3.150769c-1.890462 0.945231-2.205538 2.835692-1.260308 5.356308 3.780923 10.397538 6.616615 19.534769 8.192 28.041846 0.630154 2.520615 1.890462 4.096 3.780923 3.465846 1.575385-0.315077 2.520615-2.205538 2.205539-5.041231-1.575385-9.137231-4.411077-18.589538-8.507077-28.987077-1.260308-2.835692-2.835692-3.780923-4.411077-2.835692z m44.740923-18.274461l-2.205539-2.205539c-8.822154-4.411077-15.753846-11.027692-21.42523-19.534769-2.520615-4.411077-5.356308-4.096-8.192 0.630154-5.356308 8.507077-10.712615 14.808615-18.274462 21.110154-2.520615 2.205538-1.890462 5.041231-1.260308 5.986461 1.260308 1.890462 3.150769 2.205538 5.041231 0.630154 9.137231-7.246769 12.918154-13.233231 15.753846-17.959385 1.575385-2.205538 2.520615-3.150769 2.835693-3.150769 0.315077 0 1.575385 1.260308 3.150769 3.465846 3.780923 5.356308 10.082462 11.027692 19.219692 16.699077l2.835693 0.315077 2.205538-2.205538 0.315077-3.780923z m-29.932308 14.178461c-1.890462 0.630154-2.520615 2.520615-2.205538 5.041231 1.890462 8.192 3.150769 17.329231 4.096 27.096615 0.315077 2.835692 1.575385 4.411077 3.465846 4.096 1.890462-0.315077 2.835692-2.205538 2.520615-5.041231-0.945231-10.397538-2.205538-19.849846-4.411077-28.356923-0.315077-2.205538-1.575385-3.465846-3.465846-2.835692z m16.699077 3.465846c-1.575385 13.863385-3.780923 25.206154-6.616615 34.028308-0.945231 2.520615-0.315077 4.726154 1.575384 5.356308 2.520615 0.945231 3.780923-1.890462 4.096-3.15077 3.465846-11.027692 6.301538-23.000615 6.931693-34.973538 0.315077-2.835692-0.630154-4.726154-2.520616-5.356308-1.890462-0.315077-3.150769 1.260308-3.465846 4.096z m9.452308 41.905231h-42.850462c-1.890462 0-2.835692 1.575385-3.150769 3.780923 0 2.520615 0.945231 3.780923 2.835692 3.780923h42.850462c1.575385-0.315077 2.520615-1.260308 2.835692-3.780923-0.315077-2.520615-0.945231-3.780923-2.520615-3.780923z m-10.082462-57.028923h-24.260923c-1.890462 0.315077-2.835692 1.260308-3.150769 3.780923 0 2.520615 0.945231 3.780923 2.835692 4.096h24.260923c1.575385-0.315077 2.520615-1.575385 2.835693-3.780923 0-2.520615-0.945231-3.780923-2.520616-4.096z m-137.373538-24.891077l-2.205539-1.890462c-2.205538-0.315077-3.780923 1.575385-4.411077 4.726154-1.890462 13.548308-5.986462 24.576-11.972923 33.398154-1.260308 2.205538-1.260308 4.411077 0.315077 6.616616l2.205539 1.260307 2.520615-1.575384c1.260308-1.890462 3.150769-5.671385 3.150769-5.671385v51.672615c0 2.835692 1.260308 4.411077 3.15077 4.411077 2.205538 0 3.150769-1.575385 3.150769-4.411077v-65.536c2.205538-6.931692 3.780923-13.233231 4.411077-18.904615 0.315077-1.575385 0.315077-2.835692-0.315077-4.096z m11.342769 26.781538c-1.260308 0-2.205538-1.260308-2.205538-2.835692v-13.548308c0-1.575385 0.945231-2.835692 2.205538-2.835692H419.052308c1.260308 0 2.520615 1.260308 2.520615 2.835692v13.548308c0 1.575385-0.945231 2.835692-2.520615 2.835692h-34.343385z m50.097231 53.248l-1.575385-2.205538c-13.233231-7.561846-22.370462-16.068923-27.096615-25.521231h24.260923c1.575385 0 2.520615-1.575385 2.520615-3.465846 0-1.890462-0.945231-3.465846-2.520615-3.465846h-26.151385v-10.712615h17.644308c2.835692 0 5.041231-3.150769 5.041231-6.616616v-21.110154c0-3.465846-2.205538-6.616615-5.041231-6.616615H381.243077c-2.835692 0-5.356308 2.835692-5.356308 6.616615v21.110154c0 3.465846 2.520615 6.616615 5.356308 6.616616h17.014154v10.712615h-23.945846c-1.575385 0-2.520615 1.575385-2.520616 3.465846 0 1.890462 0.945231 3.465846 2.520616 3.465846h22.685538c-4.096 7.876923-12.288 16.068923-24.891077 24.891077-1.575385 1.260308-1.575385 3.150769-0.630154 5.671385 1.260308 2.205538 2.520615 2.835692 4.096 1.890461 10.712615-7.246769 18.589538-15.123692 23.000616-23.630769v28.987077c0.315077 2.205538 1.260308 3.780923 3.150769 3.780923s2.835692-1.260308 3.150769-3.780923v-28.987077c5.986462 9.452308 14.493538 17.644308 25.521231 24.891077h2.520615l1.890462-2.520615v-3.465847z m379.982769-35.288615c0 3.780923-2.520615 6.616615-5.356308 6.616615-2.835692 0-5.356308-2.835692-5.356307-6.616615 0-3.465846 2.205538-6.616615 5.356307-6.616615 2.835692 0 5.356308 3.150769 5.356308 6.616615z m-245.76 0c0 3.780923-2.520615 6.616615-5.356308 6.616615-3.150769 0-5.356308-2.835692-5.356307-6.616615 0-3.465846 2.205538-6.616615 5.356307-6.616615s5.356308 3.150769 5.356308 6.616615z" fill="#FFFFFF" p-id="2352"></path></svg>