<?xml version="1.0" standalone="no"?><!DOCTYPE svg PUBLIC "-//W3C//DTD SVG 1.1//EN" "http://www.w3.org/Graphics/SVG/1.1/DTD/svg11.dtd"><svg t="1490942126522" class="icon" style="" viewBox="0 0 1024 1024" version="1.1" xmlns="http://www.w3.org/2000/svg" p-id="4418" xmlns:xlink="http://www.w3.org/1999/xlink" width="36" height="36"><defs><style type="text/css"></style></defs><path d="M527.486976 437.733376h35.34848l79.429632 2.781184 11.12064 0.792576 63.545344 4.765696 20.652032 2.383872 49.645568 5.957632 38.125568 6.352896 36.538368 6.354944 10.723328 2.383872 20.65408 4.763648 9.928704 2.383872 19.062784 4.765696 18.270208 4.765696 8.736768 2.381824 16.68096 4.765696 15.886336 5.56032 15.089664 5.56032 7.149568 2.779136L510.410752 15.556608 19.924992 505.645056l7.944192-2.781184 8.339456-2.779136 8.738816-2.781184 18.26816-5.56032 9.53344-2.779136 9.928704-2.779136 9.930752-2.383872 10.326016-2.383872 21.446656-4.765696 11.12064-2.383872 11.517952-2.381824 11.515904-1.98656 23.830528-3.971072 49.645568-7.944192 10.326016-1.5872 72.679424-8.341504 86.976512-6.354944 79.034368-2.779136h46.467072zM533.358592 962.322432l411.090944-412.422144-5.330944-0.333824-28.983296-1.665024-18.989056-0.997376h-71.29088l-66.295808 2.664448-8.660992 0.6656-36.31104 2.664448-19.32288 1.333248-27.650048 1.998848-25.6512 1.998848-8.329216 0.999424-7.995392 0.6656-7.995392 0.999424-7.661568 0.999424-14.659584 1.998848-13.991936 1.998848-13.324288 1.998848-6.330368 0.999424-11.993088 1.998848-11.327488 1.998848-10.65984 2.000896-9.99424 1.998848-9.326592 1.998848-4.33152 1.333248-7.995392 2.664448-6.662144 1.998848-3.332096 1.333248-2.998272 0.997376-2.998272 1.333248-7.995392 3.995648-9.326592 5.330944-5.996544 3.997696-3.330048 2.664448-3.997696 4.995072-2.998272 4.99712-1.998848 4.99712-0.6656 3.330048v4.99712l0.331776 1.665024v2.000896l0.331776 0.997376 1.333248 5.330944 3.330048 6.662144 0.999424 1.333248 2.998272 2.998272 9.660416 8.329216 5.330944 3.663872 4.663296 2.998272 3.997696 2.664448 3.663872 2.332672 2.998272 1.998848 2.332672 1.665024 1.998848 1.333248 1.3312 1.3312 1.333248 0.999424 1.998848 1.998848 4.99712 6.664192 4.663296 9.326592 2.332672 9.32864v12.992512l-0.6656 3.330048-0.667648 2.332672-0.997376 1.998848-0.999424 2.332672-1.333248 2.332672-3.330048 4.663296-1.998848 2.332672-2.332672 2.330624-5.328896 4.665344-2.998272 2.330624-6.664192 4.663296-3.663872 2.332672-3.997696 2.332672-8.660992 4.663296-4.663296 2.332672-9.99424 4.663296-5.330944 2.332672-11.327488 4.663296-5.996544 2.332672-12.658688 4.663296-6.662144 2.332672-13.991936 4.663296-7.329792 2.332672-7.663616 2.330624-7.995392 2.332672 172.56448 173.897728z" fill="#ffb200" p-id="4419"></path><path d="M510.408704 1001.693184l490.088448-491.675648-6.354944-0.397312-34.551808-1.984512-22.638592-1.191936h-84.989952l-79.036416 3.176448-10.326016 0.794624-43.288576 3.176448-23.035904 1.589248-32.96256 2.383872-30.580736 2.383872-9.928704 1.189888-9.53344 0.794624-9.531392 1.189888-9.136128 1.191936-17.473536 2.381824-16.68096 2.383872-15.886336 2.383872-7.544832 1.189888-14.299136 2.383872-13.504512 2.383872-12.70784 2.383872-11.915264 2.383872-11.12064 2.383872-5.16096 1.5872-9.53344 3.176448-7.944192 2.383872-3.969024 1.589248-3.575808 1.189888-3.57376 1.589248-9.531392 4.763648-11.12064 6.354944-7.149568 4.765696-3.971072 3.176448-4.763648 5.955584-3.57376 5.957632-2.383872 5.957632-0.794624 3.969024v5.957632l0.397312 1.98656v2.381824l0.395264 1.191936 1.589248 6.354944 3.971072 7.942144 1.189888 1.589248 3.57376 3.57376 11.517952 9.930752 6.354944 4.368384 5.56032 3.57376 4.765696 3.176448 4.368384 2.779136 3.57376 2.383872 2.779136 1.98656 2.383872 1.589248 1.589248 1.5872 1.5872 1.191936 2.383872 2.381824 5.957632 7.944192 5.56032 11.12064 2.779136 11.12064v15.489024l-0.794624 3.971072-0.792576 2.779136-1.191936 2.383872-1.189888 2.781184-1.589248 2.779136-3.971072 5.56032-2.383872 2.779136-2.779136 2.781184-6.354944 5.56032-3.57376 2.779136-7.944192 5.56032-4.368384 2.781184-4.763648 2.779136-10.326016 5.56032-5.56032 2.781184-11.915264 5.56032-6.354944 2.779136-13.504512 5.56032-7.14752 2.781184-15.091712 5.56032-7.944192 2.779136-16.678912 5.56032-8.738816 2.779136-9.136128 2.781184-9.531392 2.779136 205.725696 207.314944z" fill="#0035d9" p-id="4420"></path></svg>