<?xml version="1.0" standalone="no"?><!DOCTYPE svg PUBLIC "-//W3C//DTD SVG 1.1//EN" "http://www.w3.org/Graphics/SVG/1.1/DTD/svg11.dtd"><svg t="1490942102458" class="icon" style="" viewBox="0 0 1024 1024" version="1.1" xmlns="http://www.w3.org/2000/svg" p-id="3869" xmlns:xlink="http://www.w3.org/1999/xlink" width="36" height="36"><defs><style type="text/css"></style></defs><path d="M503.842 95.22c137.126 52.361 245.47 240.591 57.467 321.81-14.046-11.49-28.098-22.988-42.143-34.48-0.173-52.156 19.656-53.374 45.973-76.62-3.83-3.832-7.662-7.663-11.493-11.493-20.814-9.442-34.297-27.463-45.973-45.973l-7.662 3.831c-11.647 30.402-36.294 51.61-72.79 57.466 28.871 61.035 79.94 133.906 153.242 149.412v3.831c-46.486-0.918-88.65-12.375-122.594-26.818-1.01 100.938-45.199 196.703-118.763 226.034-102.488 40.863-244.714-77.13-249.02-149.413l34.48-49.804c79.116-107.872 215.07-178.29 287.33-7.661-11.493 14.047-22.987 28.096-34.48 42.141-46.113 0.887-59.654-14.447-72.79-45.973-5.107 3.832-10.217 7.663-15.324 11.493-9.44 20.815-27.462 34.296-45.973 45.973 1.276 2.553 2.557 5.108 3.832 7.662 30.401 11.646 51.611 36.293 57.465 72.791 50.92-23.495 155.297-90.8 145.581-157.075-42.377-13.293-69.341-42.922-88.115-80.452-66.125-132.19 67.121-211.272 141.75-256.681z" p-id="3870"></path><path d="M710.72 348.071c92.758-3.54 249.217 105.64 214.54 168.568-52.547 137.303-237.457 223.812-314.148 45.975 11.493-14.048 22.986-28.098 34.48-42.144 46.112-0.887 59.654 14.447 72.789 45.974l15.325-11.494c9.44-20.815 27.462-34.297 45.974-45.973l-3.831-7.662c-30.402-11.648-51.612-36.295-57.467-72.79-61.035 28.871-133.906 79.94-149.411 153.244h-3.831c3.274-131.01 55.233-187.762 145.58-233.698z" p-id="3871"></path><path d="M434.883 558.78c112.037 1.228 213.13 51.999 233.696 145.583 21.052 95.792-118.516 242.374-168.568 214.54-137.302-52.546-223.81-237.459-45.973-314.147 14.045 11.49 28.097 22.986 42.142 34.479 0.886 46.111-14.447 59.65-45.973 72.79 3.831 5.103 7.662 10.214 11.493 15.325 20.814 9.44 34.297 27.461 45.973 45.973 2.553-1.28 5.108-2.554 7.662-3.832 11.647-30.4 36.294-51.613 72.79-57.464-36.823-76.226-83.757-109.48-153.242-153.247z" p-id="3872"></path></svg>