<?xml version="1.0" standalone="no"?><!DOCTYPE svg PUBLIC "-//W3C//DTD SVG 1.1//EN" "http://www.w3.org/Graphics/SVG/1.1/DTD/svg11.dtd"><svg t="1490942036830" class="icon" style="" viewBox="0 0 1024 1024" version="1.1" xmlns="http://www.w3.org/2000/svg" p-id="2894" xmlns:xlink="http://www.w3.org/1999/xlink" width="36" height="36"><defs><style type="text/css"></style></defs><path d="M1022.6176 852.2112l0.128-730.4064C1014.8224-24.6016 862.3104 1.8688 862.3104 1.8688L144.5376 4.8256C-4.736 1.7152 1.6256 163.84 1.6256 163.84L0 867.8016c1.6256 171.328 165.1584 154.1888 165.1584 154.1888l714.6752 1.9968c168.3456-1.5232 142.784-171.776 142.784-171.776z m-182.4768-38.9248s-377.9968-256.9856-652.7232 34.24c0 0 291.3664-339.2 1.6256-666.56 0 0 352.4992 300.5696 652.6464-6.2208 0 0-288.9984 331.7248-1.5488 638.5408z" fill="#0080CB" p-id="2895"></path></svg>