<?xml version="1.0" standalone="no"?><!DOCTYPE svg PUBLIC "-//W3C//DTD SVG 1.1//EN" "http://www.w3.org/Graphics/SVG/1.1/DTD/svg11.dtd"><svg t="1490942029988" class="icon" style="" viewBox="0 0 1024 1024" version="1.1" xmlns="http://www.w3.org/2000/svg" p-id="2786" xmlns:xlink="http://www.w3.org/1999/xlink" width="36" height="36"><defs><style type="text/css"></style></defs><path d="M1023.9104 508.6336c0-131.264-177.8816-237.6704-397.2992-237.6704-175.6288 0-324.6464 68.2752-377.0496 162.7904v-0.0896a58.2656 58.2656 0 0 0-7.5648 28.352c0 23.5648 14.8608 44.544 38.0672 58.24l201.408 116.2624a75.52 75.52 0 0 0 36.2624 9.0496 76.0704 76.0704 0 0 0 36.3008-8.9984l191.0272-110.3616c12.9152-7.4624 21.0816-19.1232 21.0816-32.1536 0-12.6464-7.7312-23.872-19.9424-31.3984l-71.0272-41.0496-157.4528 90.8672-119.0784-68.8256c45.9904-41.4464 131.7376-69.3504 229.9264-69.3504 146.8032 0 265.856 62.336 265.856 139.2896-3.1488 119.104-177.8048 211.264-390.016 205.76-212.2624-5.6192-381.7472-106.816-378.6496-225.8944h-0.0512c1.4976-157.0688 207.424-282.4448 459.8272-279.9872 22.5536 0.2432 44.5568 1.4336 66.0992 3.5968-51.776-19.0976-116.4672-30.4384-186.8672-30.4384-56.2048 0-108.864 7.2832-154.1376 19.904C127.9744 256.6656 0 373.0688 0 508.6336 0 690.176 229.2224 837.376 512 837.376s512-147.2 512-328.7424h-0.0896z" fill="#004186" p-id="2787"></path></svg>