<?xml version="1.0" standalone="no"?><!DOCTYPE svg PUBLIC "-//W3C//DTD SVG 1.1//EN" "http://www.w3.org/Graphics/SVG/1.1/DTD/svg11.dtd"><svg t="1490942050748" class="icon" style="" viewBox="0 0 1024 1024" version="1.1" xmlns="http://www.w3.org/2000/svg" p-id="3002" xmlns:xlink="http://www.w3.org/1999/xlink" width="36" height="36"><defs><style type="text/css"></style></defs><path d="M966.356 491.992c-5.858-161.87-105.678-272.176-105.678-272.176C706.308 38.426 508.332 55.344 508.332 55.344c-211.425-6.773-341.435 154.374-341.435 154.374-88.94 106.79-98.988 205.202-98.988 205.202-39.445 165.283 42.762 307.729 42.762 307.729 61.237 111.91 125.832 163.694 230.677 212.772 104.873 49.258 264.307 42.485 363.295-7.536 98.975-50.078 159.378-105.179 214.745-209.428 55.336-104.345 46.968-226.465 46.968-226.465m-500.814 375.67s-166.11-9.315-257.547-170.455c0 0-78.891-113.645-46.177-255.236 32.742-141.592 109.08-198.359 124.208-212.765 15.1-14.386 112.84-73.214 179.517-72.132v168.754h-70.465s-95.644 5.933-99.003 112.763v156.02s2.525 95.85 101.515 106.843h67.953V867.66M408.47 602.272s-16.753 4.234-19.265-15.24V437.78s2.512-16.094 15.086-16.094H611.5s17.654-3.456 19.306 16.094v144.979s4.22 22.9-12.575 19.513H408.47m403.559 109.342c-67.135 103.43-194.66 150.954-254.202 156.047V701.455h78.849s83.943-16.933 88.94-105.15v-177.2s-13.477-88.982-106.512-93.277h-61.277V157.115s104.86 8.44 189.58 87.338c84.735 78.835 106.526 157.684 115.782 200.107 9.217 42.402 15.934 163.61-51.16 267.054m0 0" fill="#9E1F31" p-id="3003"></path></svg>