<?xml version="1.0" standalone="no"?><!DOCTYPE svg PUBLIC "-//W3C//DTD SVG 1.1//EN" "http://www.w3.org/Graphics/SVG/1.1/DTD/svg11.dtd"><svg t="1490942092394" class="icon" style="" viewBox="0 0 1024 1024" version="1.1" xmlns="http://www.w3.org/2000/svg" p-id="3653" xmlns:xlink="http://www.w3.org/1999/xlink" width="36" height="36"><defs><style type="text/css"></style></defs><path d="M512 10.833c-276.865 0-501.3 224.372-501.3 501.167s224.436 501.167 501.3 501.167 501.295-224.372 501.295-501.167c0-276.801-224.43-501.167-501.295-501.167zM512 967.589c-251.699 0-455.724-203.966-455.724-455.589 0-251.612 204.030-455.606 455.724-455.606s455.724 204 455.724 455.606c0 251.623-204.030 455.589-455.724 455.589zM308.594 234.32v663.353c26.174 13.614 53.809 24.49 83.217 32.039v-563.739c-0.006-57.799-34.149-107.968-83.217-131.654zM80.405 513.171c0 139.815 66.847 263.724 170.644 343.059v-303.802c-7.153-10.672-20.849-15.694-33.338-11.196-21.147 7.851-36.054 25.153-41.11 45.011 0 0.554-8.243 0.554-8.243 0.554-1.183 3.682 4.613 5.26 1.008 5.26-1.799 0-11.465-0.273-12.572-1.66-18-20.815-20.499-47.878-20.499-77.193 0-29.529 10.31-56.268 28.317-77.332 0.39-0.222 0.269-0.426-0.046-0.601 1.753 0.804 3.174 2.058 3.803 3.997v-0.093c-0.349-0.851 7.293-2.102 6.858-3.385 4.625 22.096 19.754 41.151 42.491 49.354 12.495 4.707 26.203-0.379 33.321-11.214v-303.807c-103.786 79.056-170.633 203.19-170.633 343.046zM161.542 434.323c0.534 0 0.821 0.315 1.293 0.41-1.119-0.269-2.144-0.41-1.293-0.41zM620.557 365.974v563.731c29.25-7.549 56.752-18.426 83.194-32.046v-663.341c-49.021 23.686-83.194 73.854-83.194 131.654zM694.207 123.98c-57.042-27.292-120.771-42.782-187.945-42.782-0.063 0-0.138 0-0.212 0-68.284 0-132.869 15.83-190.289 44.020-3.713 1.662-8.18 8.187-8.18 16.015 0 8.243 5.78 15.497 13.503 18.398 77.175 23.785 133.157 95.886 133.157 180.751v601.667c16.959 1.98 34.567 3.257 52.021 3.257 17.71 0 35.017-1.276 51.973-3.257v-601.645c0-85.004 55.913-156.955 133.542-180.734 7.771-2.907 13.481-10.172 13.481-18.414 0-0.001 0-0.002 0-0.004 0-7.614-4.473-14.185-10.935-17.225zM899.815 541.22c-21.413 7.847-36.064 25.154-41.126 45.554-0.944 3.269-3.694 5.255-7.043 5.255-2.529 0-4.323-0.978-5.78-2.809-17.021-20.686-27.6-47.408-27.6-76.034 0-28.742 10.579-55.131 27.6-76.114 1.279-1.671 3.275-2.737 5.519-2.737 0.092 0 0.183 0.002 0.273 0.005 3.335 0 5.929 1.772 6.686 4.835l0.345 0.099c5.056 20.955 19.713 37.994 41.15 45.875 14.662 5.603 30.164-1.863 35.535-16.8 0.607-1.55 1.085-3.349 1.614-5.132-13.957-119.342-76.493-223.453-167.235-293.049v686.1c90.742-69.439 153.278-173.691 167.235-292.774-0.534-1.865-1.047-3.839-1.614-5.465-5.393-14.545-20.867-21.886-35.557-16.812z" fill="#BC1D21" p-id="3654"></path></svg>