<svg xmlns="http://www.w3.org/2000/svg" width="68" height="100" viewBox="0 0 68 100">
  <defs>
    <style>
      .cls-1 {
        fill: #bd1111;
        fill-rule: evenodd;
      }
    </style>
  </defs>
  <path id="形状_3" data-name="形状 3" class="cls-1" d="M56.342,98v-6.9a48.526,48.526,0,0,1,9.892,5.626L59.522,100a25.2,25.2,0,0,0-3.18-2h0Zm0-21.6V67.514a26.911,26.911,0,0,0,1.943-2.359c0.177-.181.531-0.181,0.707-0.364a42.5,42.5,0,0,0,4.239-1.814L65.7,61.706l1.766-1.09a35.173,35.173,0,0,1-11.128,15.79h0Zm0-13.612C62.348,60.436,66.41,56.988,68,53V47.007c-1.59-3.994-5.652-7.442-11.658-9.983V44.1a16.671,16.671,0,0,1,4.417,3.266C62.524,49.548,62.348,51,60.4,53a30.691,30.691,0,0,1-2.472,2,7.157,7.157,0,0,0-1.591.906v6.9h0Zm0-30.489V23.595A33.318,33.318,0,0,1,67.47,39.383L65.7,38.3a26.409,26.409,0,0,0-3.886-2l-2.827-1.271c-0.176,0-.53-0.181-0.707-0.181-0.706-.909-1.236-1.635-1.943-2.541h0Zm0-23.412V1.816A13.5,13.5,0,0,0,59.522,0l6.712,3.085A49.247,49.247,0,0,1,56.342,8.894ZM33.913,39.2a63.278,63.278,0,0,1,10.243.907,57.235,57.235,0,0,1-.176,19.782,62.663,62.663,0,0,1-10.067.725V66.97a62.573,62.573,0,0,0,8.477-.544c-1.236,3.63-2.826,7.259-5.829,9.8a4.571,4.571,0,0,1-2.648,1.087V100h3.354V92.56A47.639,47.639,0,0,1,56.342,98v-6.9a55.9,55.9,0,0,0-19.075-4.9v-2a35.328,35.328,0,0,0,19.075-7.8V67.514a29.058,29.058,0,0,1-11.3,8.349,39.389,39.389,0,0,0,4.416-10.708,38.667,38.667,0,0,0,6.887-2.36V55.9a49.76,49.76,0,0,1-5.475,2.361,64.03,64.03,0,0,0,.531-8.35,61.23,61.23,0,0,0-.531-8.166A20.837,20.837,0,0,1,56.342,44.1V37.024a38.331,38.331,0,0,0-6.887-2.177,43.37,43.37,0,0,0-4.416-10.891,29.052,29.052,0,0,1,11.3,8.349V23.595a33.976,33.976,0,0,0-19.075-7.8V13.612A51.9,51.9,0,0,0,56.342,8.894V1.816A47.817,47.817,0,0,1,37.267,7.442V0H33.913V22.686a2.167,2.167,0,0,1,1.058.183c3.179,1.27,5.121,5.262,6.536,8.166,0.353,0.726.53,1.634,0.883,2.36-2.649-.183-5.475-0.364-8.477-0.364V39.2ZM22.96,49.909a61.137,61.137,0,0,1,.885-9.8A62.909,62.909,0,0,1,33.913,39.2V33.031h0c-2.828,0-5.653.18-8.479,0.364a49.544,49.544,0,0,1,3-6.172c1.059-1.632,3.179-4.538,5.476-4.538V0H30.732V7.442A49.52,49.52,0,0,1,11.481,1.816V8.894a51.948,51.948,0,0,0,19.251,4.718V15.79a34.514,34.514,0,0,0-19.251,7.8v8.711a29.051,29.051,0,0,1,11.3-8.349,43.363,43.363,0,0,0-4.416,10.891,38.33,38.33,0,0,0-6.887,2.177V44.1c1.058-.544,2.119-1.09,3-1.452s1.767-.544,2.65-0.907a63.269,63.269,0,0,0-.53,8.166,64.032,64.032,0,0,0,.53,8.35A52.712,52.712,0,0,1,11.481,55.9v6.9a38.666,38.666,0,0,0,6.887,2.36,39.383,39.383,0,0,0,4.416,10.708,29.058,29.058,0,0,1-11.3-8.349v8.893a35.891,35.891,0,0,0,19.251,7.8v2a55.851,55.851,0,0,0-19.251,4.9V98A49.316,49.316,0,0,1,30.732,92.56V100h3.181V77.314a5.077,5.077,0,0,1-3-1.451,25.644,25.644,0,0,1-2.12-2.359,32.458,32.458,0,0,1-3.355-7.078,66.54,66.54,0,0,0,8.479.544h0V60.617h0a62.65,62.65,0,0,1-10.068-.725A63.392,63.392,0,0,1,22.96,49.909ZM11.481,1.816V8.894A47.9,47.9,0,0,1,1.767,3.085L8.3,0a28.537,28.537,0,0,0,3.18,1.816h0Zm0,21.779v8.711a21.719,21.719,0,0,0-1.767,2.541A30.9,30.9,0,0,0,6.006,36.3l-2.65,1.27-2.3,1.451-0.707.362A33.307,33.307,0,0,1,11.481,23.595h0Zm0,13.429C5.652,39.565,1.589,42.832,0,46.642v6.535c1.589,3.811,5.652,7.259,11.481,9.618V55.9c-0.177-.181-0.531-0.362-0.707-0.543C8.655,54.084,5.122,51.725,6.182,49c0.883-2.178,3-3.812,5.3-4.9V37.024h0Zm0,30.49v8.893A35.161,35.161,0,0,1,.354,60.617l1.766,1.09,2.473,1.272a42.651,42.651,0,0,0,4.239,1.814l0.883,0.364a20.483,20.483,0,0,0,1.767,2.359h0Zm0,23.594V98c-1.06.727-2.12,1.272-3.18,2L1.767,96.734A47.176,47.176,0,0,1,11.481,91.108Z"/>
</svg>
