<svg xmlns="http://www.w3.org/2000/svg" width="102" height="100" viewBox="0 0 102 100">
  <defs>
    <style>
      .cls-1 {
        fill: #d04252;
        fill-rule: evenodd;
      }
    </style>
  </defs>
  <path id="形状_4" data-name="形状 4" class="cls-1" d="M58.758,99.741a49.434,49.434,0,0,0,40.478-33.02l0.057,0.031a50.7,50.7,0,0,0-5.379-43.78A49.487,49.487,0,0,0,52.306,0a56.086,56.086,0,0,0-13.6,1.32C40.586,1.129,45.619.969,48.979,1A46.853,46.853,0,0,1,92.04,31.884a35.759,35.759,0,0,1,3.025,14.422c0,1.091-.059,2.172-0.151,3.238,0,0.1,0,.2,0,0.312l-0.026-.014A35.714,35.714,0,0,1,71.81,79.869c-0.121.043-.246,0.085-0.372,0.131-0.349.124-.7,0.249-1.059,0.364-0.342.111-.685,0.214-1.04,0.317-0.124.035-.243,0.072-0.37,0.1a34.9,34.9,0,0,1-7.708,1.26A33.483,33.483,0,0,1,53.2,81.6a32.49,32.49,0,0,1-6.99-2.095,35.9,35.9,0,0,1-10.17-60.071c0.076-.146-0.136-0.137-0.2-0.135a7.237,7.237,0,0,0-1.416.334,29.26,29.26,0,0,0-2.913,1.214c-0.231.125-.464,0.258-0.69,0.392-0.2.109-.4,0.22-0.593,0.33A41.623,41.623,0,0,0,18.162,32.274c-0.09.112-.175,0.229-0.257,0.346-0.209.277-.412,0.555-0.611,0.841-0.179.243-.352,0.495-0.514,0.748q-0.146.217-.3,0.433c-0.245.373-.479,0.747-0.707,1.127-0.015.022-.026,0.041-0.043,0.063A42.248,42.248,0,0,0,9.816,53.583a0.585,0.585,0,0,0-.012.094c-0.03.337-.059,0.679-0.081,1.019-0.024.32-.05,0.644-0.062,0.967-0.008.1-.008,0.212-0.011,0.32-0.023.529-.039,1.061-0.039,1.6H9.6c0,0.864.01,1.734,0.052,2.608A42.247,42.247,0,0,0,32.536,95.352a51.167,51.167,0,0,0,26.229,4.394Zm3.421-80.46a0.034,0.034,0,0,1-.016,0l-0.008,0a15.108,15.108,0,0,0-6.289,29.552l0,0.023a0.285,0.285,0,0,0,.037,0,15.167,15.167,0,0,1-2.627,29.964,0.339,0.339,0,0,0,.024.286A30.315,30.315,0,0,0,62.179,19.281ZM21.535,17.764h0c-5.017,2.05-8.05,5.762-10.988,9.351C7.642,30.653,4.66,34.239,0,35.671a13.643,13.643,0,0,0,7.025.366A13.5,13.5,0,0,0,14,31.308,43.574,43.574,0,0,1,34.672,17.89C31.9,16.124,27.746,15.231,21.535,17.764Z"/>
</svg>
