<svg xmlns="http://www.w3.org/2000/svg" width="102" height="100" viewBox="0 0 102 100">
  <defs>
    <style>
      .cls-1 {
        fill: #d04252;
        fill-rule: evenodd;
      }
    </style>
  </defs>
  <path id="形状_5" data-name="形状 5" class="cls-1" d="M26.865,64.233c0.366-.347.559-0.521,0.744-0.705q3.888-3.891,7.773-7.785,6.936-6.974,13.866-13.954c1.294-1.3,2.164-1.3,3.468-.015,0.114,0.113.224,0.23,0.337,0.344q3.961,3.988,7.923,7.975c0.748,0.749,1.607.837,2.147,0.132a2.478,2.478,0,0,0,.427-1.407c0.028-5.693.019-11.388,0.018-17.082,0-2.13-.56-2.986-2.482-3.748A26.629,26.629,0,0,0,25.242,59.38c0.425,1.6,1.045,3.139,1.624,4.853h0Zm0,0,22.4-.461q-4.134-4.152-8.266-8.308a1.464,1.464,0,0,0-2.587,1.02c0,5.962-.01,11.923.01,17.885a3.036,3.036,0,0,0,2.014,3A26.612,26.612,0,0,0,76.949,47.158c-0.442-1.925-1.149-3.787-1.8-5.891-0.4.377-.559,0.515-0.706,0.662Q63.569,52.848,52.7,63.77c-1.314,1.321-2.121,1.324-3.437,0h0Zm0,0M28.466,27.985c9.029-7.906,19.338-10.494,30.94-7.668a1.448,1.448,0,0,0,1.436-.343,23.291,23.291,0,0,1,9.373-4.8c0.792-.2,1.594-0.355,2.4-0.533-3-8.832-14.252-17.2-27.4-13.914C32.448,3.914,25.368,17.071,27.959,28.362c0.22-.162.372-0.259,0.508-0.377h0Zm0,0M20.728,67.028c-0.069-.174-0.139-0.347-0.215-0.518a33.907,33.907,0,0,1,2.515-32.133,1.2,1.2,0,0,0,.108-0.94A24.756,24.756,0,0,1,21.613,20.9a5.693,5.693,0,0,0,0-.772C11.256,20.61.27,29.518,0.006,43.375-0.245,56.549,10.2,66.36,20.7,67.172a0.482,0.482,0,0,0,.027-0.144h0Zm0,0,63.177-8.146a0.357,0.357,0,0,0-.1.112c-0.143.574-.267,1.153-0.42,1.724q-4.5,16.745-20.338,23.252a1.3,1.3,0,0,0-.891,1,20.417,20.417,0,0,1-2.816,6.653c-1.108,1.665-2.354,3.237-3.536,4.845,8.561,5.793,22.485,4.833,30.7-5.694,8.013-10.274,5.725-24.7-2.6-31.893h0Zm0,0M97.422,29.773a23.338,23.338,0,0,0-30.513-6.6c0.224,0.144.383,0.232,0.528,0.341a70.445,70.445,0,0,1,6.484,4.933A32.615,32.615,0,0,1,84.267,50.953a1.15,1.15,0,0,0,.614,1.017,24.274,24.274,0,0,1,8.552,9.285c0.093,0.177.215,0.337,0.327,0.511a23.73,23.73,0,0,0,3.662-31.993h0Zm0,0M44.583,85.781A32.788,32.788,0,0,1,25.111,73.919a1.2,1.2,0,0,0-1.153-.491,22.933,22.933,0,0,1-8.728-1.068c-1.377-.459-2.714-1.046-4.126-1.6A23.6,23.6,0,0,0,27.667,99.115c12.043,3.449,23.959-3.72,27.552-12.941l-0.72.063a33.906,33.906,0,0,1-9.916-.456h0Zm0,0"/>
</svg>
