<svg xmlns="http://www.w3.org/2000/svg" width="80" height="44" viewBox="0 0 80 44">
  <defs>
    <style>
      .cls-1 {
        fill: #095fc8;
        fill-rule: evenodd;
      }
    </style>
  </defs>
  <path id="形状_2" data-name="形状 2" class="cls-1" d="M13.817,10.646S24.088-3.016,40.839,5.482A36.739,36.739,0,0,1,60.176.072C61.432,0.107,70.008,0,72.891,4.064c1.441,2.022,1.279,4.553-1.161,6.523,0,0-11.628-8.918-40.233-.4a19.6,19.6,0,0,0-9.48-1.806,20.093,20.093,0,0,0-8.2,2.262h0ZM68.618,44L80,20.852S74.191,4.79,43.456,8.929A74.281,74.281,0,0,0,0,31.3a54.018,54.018,0,0,1,41.324-5.612C60.505,31,68.618,44,68.618,44h0Z"/>
</svg>
