<svg xmlns="http://www.w3.org/2000/svg" width="102" height="100" viewBox="0 0 102 100">
  <defs>
    <style>
      .cls-1 {
        fill: #0d8b84;
        fill-rule: evenodd;
      }
    </style>
  </defs>
  <path id="形状_1" data-name="形状 1" class="cls-1" d="M9.362,55.936L8.87,58.864H23.653l0.656-2.928H9.362Zm37.612,2.928,0.492-2.928H30.713l-0.656,2.928H46.974Zm9.362-14.8-2.3,11.875-0.652,2.928-2.3,11.876H27.758L27.266,73.5h27.26l3.617-17.56,2.3-11.875H93.132L90.666,55.936H64.554l-5.92,29.428H24.8l-0.492,2.76H62.252l3.61-17.384,2.3-11.876h22.01l-2.3,11.876H72.266L68.82,88.124,66.358,100H15.438l5.916-29.26H0L2.462,58.864l0.492-2.928L5.417,44.061H26.6L32.52,14.8H55.841L58.8,0H102L99.536,11.873H62.744l-0.5,2.928-2.3,11.876H36.621l-0.656,2.752H63.392l0.5-2.752L66.354,14.8H99.037L96.578,26.676H70.456L67.5,41.308H33.674l-0.66,2.753H56.336Zm0,0"/>
</svg>
